<svg width="21" height="20" viewBox="0 0 21 20" fill="none" xmlns="http://www.w3.org/2000/svg">
<rect width="20" height="20" transform="translate(0.75)" fill="white"/>
<path d="M15.4337 8.95833C15.0753 8.95833 14.792 8.66666 14.792 8.31666C14.792 8.00833 14.4837 7.36666 13.967 6.80833C13.4587 6.26666 12.9003 5.95 12.4337 5.95C12.0753 5.95 11.792 5.65833 11.792 5.30833C11.792 4.95833 12.0837 4.66666 12.4337 4.66666C13.267 4.66666 14.142 5.11666 14.9087 5.925C15.6253 6.68333 16.0837 7.625 16.0837 8.30833C16.0837 8.66666 15.792 8.95833 15.4337 8.95833Z" fill="#E04836"/>
<path d="M18.4415 8.95833C18.0831 8.95833 17.7998 8.66666 17.7998 8.31666C17.7998 5.35833 15.3915 2.95833 12.4415 2.95833C12.0831 2.95833 11.7998 2.66666 11.7998 2.31666C11.7998 1.96666 12.0831 1.66666 12.4331 1.66666C16.0998 1.66666 19.0831 4.65 19.0831 8.31666C19.0831 8.66666 18.7915 8.95833 18.4415 8.95833Z" fill="#E04836"/>
<path d="M9.95866 12.4583L8.41699 14C8.09199 14.325 7.57533 14.325 7.24199 14.0083C7.15033 13.9167 7.05866 13.8333 6.96699 13.7417C6.10866 12.875 5.33366 11.9667 4.64199 11.0167C3.95866 10.0667 3.40866 9.11666 3.00866 8.175C2.61699 7.225 2.41699 6.31666 2.41699 5.45C2.41699 4.88333 2.51699 4.34166 2.71699 3.84166C2.91699 3.33333 3.23366 2.86666 3.67533 2.45C4.20866 1.925 4.79199 1.66666 5.40866 1.66666C5.64199 1.66666 5.87533 1.71666 6.08366 1.81666C6.30033 1.91666 6.49199 2.06666 6.64199 2.28333L8.57533 5.00833C8.72533 5.21666 8.83366 5.40833 8.90866 5.59166C8.98366 5.76666 9.02533 5.94166 9.02533 6.1C9.02533 6.3 8.96699 6.5 8.85033 6.69166C8.74199 6.88333 8.58366 7.08333 8.38366 7.28333L7.75033 7.94166C7.65866 8.03333 7.61699 8.14166 7.61699 8.275C7.61699 8.34166 7.62533 8.4 7.64199 8.46666C7.66699 8.53333 7.69199 8.58333 7.70866 8.63333C7.85866 8.90833 8.11699 9.26666 8.48366 9.7C8.85866 10.1333 9.25866 10.575 9.69199 11.0167C9.77532 11.1 9.86699 11.1833 9.95033 11.2667C10.2837 11.5917 10.292 12.125 9.95866 12.4583Z" fill="#E04836"/>
<path d="M19.0583 15.275C19.0583 15.5083 19.0167 15.75 18.9333 15.9833C18.9083 16.05 18.8833 16.1167 18.85 16.1833C18.7083 16.4833 18.525 16.7667 18.2833 17.0333C17.875 17.4833 17.425 17.8083 16.9167 18.0167C16.9083 18.0167 16.9 18.025 16.8917 18.025C16.4 18.225 15.8667 18.3333 15.2917 18.3333C14.4417 18.3333 13.5333 18.1333 12.575 17.725C11.6167 17.3167 10.6583 16.7667 9.70833 16.075C9.38333 15.8333 9.05833 15.5917 8.75 15.3333L11.475 12.6083C11.7083 12.7833 11.9167 12.9167 12.0917 13.0083C12.1333 13.025 12.1833 13.05 12.2417 13.075C12.3083 13.1 12.375 13.1083 12.45 13.1083C12.5917 13.1083 12.7 13.0583 12.7917 12.9667L13.425 12.3417C13.6333 12.1333 13.8333 11.975 14.025 11.875C14.2167 11.7583 14.4083 11.7 14.6167 11.7C14.775 11.7 14.9417 11.7333 15.125 11.8083C15.3083 11.8833 15.5 11.9917 15.7083 12.1333L18.4667 14.0917C18.6833 14.2417 18.8333 14.4167 18.925 14.625C19.0083 14.8333 19.0583 15.0417 19.0583 15.275Z" fill="#E04836"/>
</svg>
