<svg width="20" height="20" viewBox="0 0 20 20" fill="none" xmlns="http://www.w3.org/2000/svg">
<path d="M14.167 1.66667L5.83366 1.66667C3.53366 1.66667 1.66699 3.525 1.66699 5.81667L1.66699 10.8V11.6333C1.66699 13.925 3.53366 15.7833 5.83366 15.7833H7.08366C7.30866 15.7833 7.60866 15.9333 7.75033 16.1167L9.00033 17.775C9.55033 18.5083 10.4503 18.5083 11.0003 17.775L12.2503 16.1167C12.4087 15.9083 12.6587 15.7833 12.917 15.7833H14.167C16.467 15.7833 18.3337 13.925 18.3337 11.6333V5.81667C18.3337 3.525 16.467 1.66667 14.167 1.66667ZM10.8337 11.4583L5.83366 11.4583C5.49199 11.4583 5.20866 11.175 5.20866 10.8333C5.20866 10.4917 5.49199 10.2083 5.83366 10.2083L10.8337 10.2083C11.1753 10.2083 11.4587 10.4917 11.4587 10.8333C11.4587 11.175 11.1753 11.4583 10.8337 11.4583ZM14.167 7.29167L5.83366 7.29167C5.49199 7.29167 5.20866 7.00833 5.20866 6.66667C5.20866 6.325 5.49199 6.04167 5.83366 6.04167L14.167 6.04167C14.5087 6.04167 14.792 6.325 14.792 6.66667C14.792 7.00833 14.5087 7.29167 14.167 7.29167Z" fill="white"/>
</svg>
