<svg width="19" height="18" viewBox="0 0 19 18" fill="none" xmlns="http://www.w3.org/2000/svg">
<g id="elements">
<path id="Rectangle 2356" d="M11.4159 5.66675L8.08252 5.66675C6.01419 5.66675 5.58252 6.09841 5.58252 8.16675L5.58252 17.3334H13.9159L13.9159 8.16675C13.9159 6.09841 13.4842 5.66675 11.4159 5.66675Z" stroke="black" stroke-width="1.25556" stroke-linejoin="round"/>
<path id="Vector" d="M8.91602 9L10.5827 9M8.91602 11.5H10.5827M8.91602 14H10.5827" stroke="black" stroke-width="1.25556" stroke-linecap="round" stroke-linejoin="round"/>
<path id="Vector 6066" d="M17.2492 17.3334L17.2492 5.82144C17.2492 4.79787 17.2492 4.28608 17.0003 3.8748C16.7514 3.46351 16.3031 3.23464 15.4066 2.77688L11.7885 0.92955C10.8215 0.435784 10.5825 0.6098 10.5825 1.69069L10.5825 5.41967" stroke="black" stroke-width="1.25556" stroke-linecap="round" stroke-linejoin="round"/>
<path id="Vector 6067" d="M2.24951 17.3333L2.24951 9.83333C2.24951 9.14389 2.3934 9 3.08284 9H5.58284" stroke="black" stroke-width="1.25556" stroke-linecap="round" stroke-linejoin="round"/>
<path id="Vector 6068" d="M18.0827 17.3334L1.41602 17.3334" stroke="black" stroke-width="1.25556" stroke-linecap="round" stroke-linejoin="round"/>
</g>
</svg>
