<svg width="35" height="35" viewBox="0 0 35 35" fill="none" xmlns="http://www.w3.org/2000/svg">
<circle cx="17.5" cy="17.5" r="17.5" fill="#F5F5F5"/>
<path d="M21.2798 10.3467C21.1682 10.4584 21.1055 10.6099 21.1055 10.7679C21.1055 10.9258 21.1682 11.0773 21.2798 11.189L24.8318 14.7411H17.9264C13.2086 14.7411 9.38398 18.5657 9.38398 23.2835C9.38398 23.4415 9.44677 23.5931 9.55854 23.7049C9.67031 23.8167 9.8219 23.8795 9.97997 23.8795C10.138 23.8795 10.2896 23.8167 10.4014 23.7049C10.5132 23.5931 10.5759 23.4415 10.5759 23.2835C10.5759 22.3182 10.7661 21.3624 11.1355 20.4706C11.5049 19.5788 12.0463 18.7685 12.7288 18.0859C13.4114 17.4034 14.2217 16.8619 15.1135 16.4925C16.0053 16.1232 16.9611 15.933 17.9264 15.933H24.8318L21.2798 19.4851C21.2212 19.5396 21.1743 19.6054 21.1417 19.6785C21.1091 19.7517 21.0916 19.8306 21.0902 19.9106C21.0888 19.9906 21.1035 20.0701 21.1335 20.1443C21.1634 20.2185 21.2081 20.2859 21.2647 20.3425C21.3213 20.3991 21.3887 20.4437 21.4629 20.4737C21.5371 20.5037 21.6166 20.5184 21.6966 20.517C21.7766 20.5156 21.8555 20.4981 21.9286 20.4655C22.0017 20.4329 22.0675 20.386 22.1221 20.3274L26.6913 15.7582C26.8029 15.6465 26.8656 15.495 26.8656 15.337C26.8656 15.1791 26.8029 15.0276 26.6913 14.9159L22.1221 10.3467C22.0104 10.2351 21.8589 10.1724 21.7009 10.1724C21.543 10.1724 21.3915 10.2351 21.2798 10.3467Z" fill="#181716"/>
</svg>
