<svg width="19" height="18" viewBox="0 0 19 18" fill="none" xmlns="http://www.w3.org/2000/svg">
<path d="M9.75 16.5109C9.6534 16.5109 9.55842 16.486 9.47423 16.4386L3.28673 12.9582C3.19974 12.9092 3.12733 12.838 3.07694 12.7519C3.02656 12.6657 3 12.5677 3 12.4679V5.5321C3 5.4323 3.02656 5.33428 3.07694 5.24813C3.12733 5.16197 3.19974 5.09078 3.28673 5.04184L9.47423 1.56137C9.55842 1.51401 9.6534 1.48914 9.75 1.48914C9.8466 1.48914 9.94158 1.51401 10.0258 1.56137L16.2133 5.04184C16.3003 5.09078 16.3727 5.16197 16.4231 5.24813C16.4734 5.33428 16.5 5.4323 16.5 5.5321V12.4679C16.5 12.5677 16.4734 12.6657 16.4231 12.7519C16.3727 12.838 16.3003 12.9092 16.2133 12.9582L10.0258 16.4386C9.94158 16.486 9.8466 16.5109 9.75 16.5109ZM9.75 16.5109L9.81673 9.00001M16.4224 5.24715L9.81673 9.00001M9.81673 9.00001L3.07791 5.24651" stroke="white" stroke-width="1.5" stroke-linecap="round" stroke-linejoin="round"/>
</svg>
