<svg width="18" height="19" viewBox="0 0 18 19" fill="none" xmlns="http://www.w3.org/2000/svg">
<path opacity="0.946" fill-rule="evenodd" clip-rule="evenodd" d="M1.17773 0.352478C1.2832 0.352478 1.38867 0.352478 1.49414 0.352478C2.35533 0.877741 3.22251 1.39821 4.0957 1.91388C4.12945 1.96369 4.15874 2.01632 4.18359 2.07178C4.1953 2.39926 4.20704 2.72675 4.21875 3.05423C5.64845 4.48114 7.07811 5.90802 8.50781 7.33493C9.36327 6.48114 10.2188 5.62732 11.0742 4.77353C10.7423 3.1265 11.2638 1.8224 12.6387 0.86125C13.0693 0.610884 13.5264 0.441293 14.0098 0.352478C14.3379 0.352478 14.666 0.352478 14.9941 0.352478C15.2575 0.395125 15.5154 0.471149 15.7676 0.580548C15.89 0.723513 15.9192 0.881408 15.8555 1.05423C15.376 1.56784 14.8839 2.07077 14.3789 2.563C14.3555 2.80862 14.3555 3.05423 14.3789 3.29985C14.632 3.54068 14.8722 3.79214 15.0996 4.05423C15.334 4.07764 15.5683 4.07764 15.8027 4.05423C16.3194 3.52689 16.8467 3.01227 17.3848 2.51037C17.5938 2.45886 17.752 2.52319 17.8594 2.70336C17.8957 2.83783 17.9367 2.96649 17.9824 3.08932C17.9824 3.60394 17.9824 4.11855 17.9824 4.63318C17.4859 6.35567 16.3375 7.27964 14.5371 7.40511C14.2186 7.38034 13.9022 7.35107 13.5879 7.31739C12.9082 7.99574 12.2285 8.67413 11.5488 9.35248C11.7176 9.48578 11.8758 9.63199 12.0234 9.79107C12.1293 9.65002 12.264 9.55062 12.4277 9.49283C12.7667 9.49606 12.9015 9.66567 12.832 10.0016C12.7749 10.0938 12.7046 10.1757 12.6211 10.2472C12.5976 10.2706 12.5976 10.294 12.6211 10.3174C14.1633 11.7514 15.716 13.1724 17.2793 14.5805C17.5935 14.8757 17.8279 15.2208 17.9824 15.6156C17.9824 16.025 17.9824 16.4343 17.9824 16.8437C17.6864 17.642 17.1239 18.1449 16.2949 18.3525C16.0371 18.3525 15.7793 18.3525 15.5215 18.3525C15.164 18.2619 14.8359 18.104 14.5371 17.8788C12.9949 16.2344 11.4656 14.5794 9.94922 12.9139C9.86003 13.0147 9.76043 13.1024 9.65039 13.177C9.35255 13.2423 9.17677 13.1254 9.12305 12.8262C9.1755 12.6403 9.28097 12.4882 9.43945 12.37C9.30589 12.2016 9.1594 12.0437 9 11.8963C8.32032 12.5747 7.64061 13.2531 6.96094 13.9314C7.27995 15.5732 6.75844 16.8773 5.39648 17.8437C4.96607 18.094 4.50904 18.2636 4.02539 18.3525C3.69728 18.3525 3.36914 18.3525 3.04102 18.3525C2.77761 18.3098 2.5198 18.2338 2.26758 18.1244C2.14522 17.9814 2.11592 17.8235 2.17969 17.6507C2.68359 17.1478 3.1875 16.6449 3.69141 16.142C3.71486 15.8963 3.71486 15.6507 3.69141 15.4051C3.43945 15.1536 3.1875 14.9022 2.93555 14.6507C2.70117 14.6273 2.4668 14.6273 2.23242 14.6507C1.72852 15.1536 1.22461 15.6566 0.720703 16.1595C0.531422 16.2444 0.361501 16.2152 0.210938 16.0718C0.106238 15.7823 0.0300666 15.4899 -0.0175781 15.1946C-0.0175781 14.9724 -0.0175781 14.7501 -0.0175781 14.5279C0.145825 13.1675 0.84895 12.1909 2.0918 11.5981C2.85621 11.2887 3.64138 11.2185 4.44727 11.3876C5.29102 10.5455 6.13477 9.70335 6.97852 8.86125C5.54783 7.44507 4.12988 6.01816 2.72461 4.58055C2.4082 4.56886 2.0918 4.55714 1.77539 4.54546C1.70441 4.52967 1.63996 4.50044 1.58203 4.45774C1.0386 3.5713 0.505399 2.68241 -0.0175781 1.79107C-0.0175781 1.7209 -0.0175781 1.65072 -0.0175781 1.58055C0.356288 1.14891 0.754727 0.739552 1.17773 0.352478ZM14.1152 1.08932C14.3265 1.08349 14.5374 1.08934 14.748 1.10686C14.3789 1.49868 14.0098 1.89049 13.6406 2.2823C13.6172 2.71505 13.6172 3.1478 13.6406 3.58055C13.9863 3.94897 14.332 4.31739 14.6777 4.68581C14.7401 4.7363 14.8104 4.77139 14.8887 4.79107C15.2637 4.81448 15.6387 4.81448 16.0137 4.79107C16.0751 4.77455 16.1337 4.75114 16.1895 4.7209C16.5586 4.35248 16.9277 3.98406 17.2969 3.61564C17.3302 5.06413 16.6681 6.04072 15.3105 6.54546C14.702 6.71722 14.0985 6.69967 13.5 6.49283C13.4336 6.50321 13.3691 6.52076 13.3066 6.54546C10.9453 8.9022 8.584 11.2589 6.22266 13.6156C6.18729 13.687 6.16971 13.763 6.16992 13.8437C6.5899 15.461 6.06255 16.654 4.58789 17.4227C4.16932 17.5917 3.7357 17.6502 3.28711 17.5981C3.68075 17.2169 4.0616 16.8251 4.42969 16.4227C4.45314 15.9899 4.45314 15.5571 4.42969 15.1244C4.08505 14.7453 3.72762 14.3769 3.35742 14.0191C3.29503 13.9687 3.22472 13.9336 3.14648 13.9139C2.77148 13.8905 2.39649 13.8905 2.02148 13.9139C1.96009 13.9304 1.9015 13.9538 1.8457 13.9841C1.47656 14.3525 1.10742 14.7209 0.738281 15.0893C0.704373 13.6423 1.36648 12.6657 2.72461 12.1595C3.33283 11.9877 3.93634 12.0052 4.53516 12.2121C4.60153 12.2017 4.66601 12.1842 4.72852 12.1595C7.08986 9.80276 9.45116 7.44606 11.8125 5.08932C11.8479 5.01795 11.8654 4.94195 11.8652 4.86125C11.4453 3.24397 11.9726 2.05098 13.4473 1.2823C13.6697 1.20065 13.8924 1.13632 14.1152 1.08932ZM1.38867 1.1595C2.06738 1.56846 2.74707 1.97781 3.42773 2.38757C3.45697 2.67926 3.47455 2.97166 3.48047 3.26476C3.5002 3.34284 3.53535 3.41302 3.58594 3.47529C5.03905 4.92557 6.4922 6.37588 7.94531 7.82616C7.96876 7.84957 7.96876 7.87293 7.94531 7.89634C7.81056 8.03083 7.67577 8.16536 7.54102 8.29985C7.51757 8.32325 7.49415 8.32325 7.4707 8.29985C6.00585 6.79107 4.51758 5.30571 3.00586 3.84371C2.68086 3.83736 2.3586 3.81982 2.03906 3.79107C1.64177 3.10813 1.23747 2.42977 0.826172 1.75599C1.01443 1.55644 1.20193 1.35761 1.38867 1.1595ZM10.9863 9.89634C11.0954 9.96381 11.2009 10.0398 11.3027 10.1244C11.389 10.1855 11.4417 10.2615 11.4609 10.3525C10.9683 10.8501 10.4702 11.3413 9.9668 11.8262C9.83844 11.6805 9.70369 11.5401 9.5625 11.4051C9.53905 11.3817 9.53905 11.3583 9.5625 11.3349C10.0442 10.86 10.5188 10.3805 10.9863 9.89634ZM12.0059 10.8437C12.0559 10.851 12.1027 10.8686 12.1465 10.8963C13.6945 12.3362 15.2531 13.7631 16.8223 15.177C17.4961 15.9251 17.4727 16.6502 16.752 17.3525C16.0542 17.7662 15.4156 17.6902 14.8359 17.1244C13.4075 15.5466 11.9661 13.9794 10.5117 12.4227C10.4883 12.3993 10.4883 12.3759 10.5117 12.3525C11.0169 11.8542 11.5149 11.3512 12.0059 10.8437Z" fill="#1F1F1F"/>
</svg>
