<svg width="28" height="28" viewBox="0 0 28 28" fill="none" xmlns="http://www.w3.org/2000/svg">
<rect width="28" height="28" rx="4" fill="#F6F6FA"/>
<path d="M19.002 21.9167C18.4242 21.9167 17.9323 21.7139 17.5262 21.3083C17.12 20.9039 16.917 20.4122 16.917 19.8333C16.917 19.7222 16.9264 19.6075 16.9453 19.4892C16.9648 19.3703 16.9937 19.2583 17.032 19.1533L10.5803 15.3525C10.3764 15.5825 10.1392 15.7617 9.86866 15.89C9.5981 16.0183 9.30866 16.0828 9.00033 16.0833C8.42144 16.0833 7.92977 15.8811 7.52533 15.4767C7.11977 15.0717 6.91699 14.58 6.91699 14.0017C6.91699 13.4233 7.11977 12.9314 7.52533 12.5258C7.93088 12.1203 8.42255 11.9172 9.00033 11.9167C9.30921 11.9167 9.59866 11.9811 9.86866 12.11C10.1387 12.2389 10.3759 12.4181 10.5803 12.6475L17.0328 8.84583C16.9939 8.74138 16.965 8.62972 16.9462 8.51083C16.9267 8.39249 16.917 8.27777 16.917 8.16666C16.917 7.58777 17.1195 7.09611 17.5245 6.69166C17.9289 6.28611 18.4203 6.08333 18.9987 6.08333C19.577 6.08333 20.0689 6.28583 20.4745 6.69083C20.88 7.09583 21.0831 7.58722 21.0837 8.16499C21.0842 8.74277 20.8814 9.23472 20.4753 9.64083C20.0714 10.0469 19.5798 10.25 19.0003 10.25C18.6914 10.25 18.402 10.1856 18.132 10.0567C17.862 9.92777 17.6248 9.74861 17.4203 9.51916L10.9687 13.3208C11.007 13.4253 11.0356 13.5364 11.0545 13.6542C11.0739 13.7725 11.0837 13.8867 11.0837 13.9967C11.0837 14.1067 11.0739 14.2219 11.0545 14.3425C11.035 14.4631 11.0062 14.5756 10.9678 14.68L17.4203 18.4808C17.6242 18.2514 17.8614 18.0722 18.132 17.9433C18.4025 17.8144 18.692 17.75 19.0003 17.75C19.5792 17.75 20.0709 17.9525 20.4753 18.3575C20.8809 18.7619 21.0837 19.2533 21.0837 19.8317C21.0837 20.41 20.8814 20.9019 20.477 21.3075C20.0725 21.713 19.5809 21.9161 19.002 21.9167ZM19.0003 9.41666C19.3431 9.41666 19.6373 9.29416 19.8828 9.04916C20.1278 8.80361 20.2503 8.50944 20.2503 8.16666C20.2503 7.82388 20.1278 7.52972 19.8828 7.28416C19.6373 7.03916 19.3431 6.91666 19.0003 6.91666C18.6575 6.91666 18.3634 7.03916 18.1178 7.28416C17.8728 7.52972 17.7503 7.82388 17.7503 8.16666C17.7503 8.50944 17.8728 8.80361 18.1178 9.04916C18.3634 9.29416 18.6575 9.41666 19.0003 9.41666ZM9.00033 15.25C9.3431 15.25 9.63727 15.1275 9.88283 14.8825C10.1278 14.6369 10.2503 14.3428 10.2503 14C10.2503 13.6572 10.1278 13.3631 9.88283 13.1175C9.63783 12.8719 9.34366 12.7494 9.00033 12.75C8.65699 12.7506 8.36283 12.8731 8.11783 13.1175C7.87283 13.3631 7.75033 13.6572 7.75033 14C7.75033 14.3428 7.87283 14.6369 8.11783 14.8825C8.36283 15.128 8.65699 15.2506 9.00033 15.25ZM19.0003 21.0833C19.3431 21.0833 19.6373 20.9608 19.8828 20.7158C20.1278 20.4703 20.2503 20.1761 20.2503 19.8333C20.2503 19.4906 20.1278 19.1964 19.8828 18.9508C19.6373 18.7058 19.3431 18.5833 19.0003 18.5833C18.6575 18.5833 18.3634 18.7058 18.1178 18.9508C17.8728 19.1964 17.7503 19.4906 17.7503 19.8333C17.7503 20.1761 17.8728 20.4703 18.1178 20.7158C18.3634 20.9608 18.6575 21.0833 19.0003 21.0833Z" fill="#1F1F1F"/>
</svg>
