<svg width="28" height="28" viewBox="0 0 28 28" fill="none" xmlns="http://www.w3.org/2000/svg">
<rect width="28" height="28" rx="4" fill="#F6F6FA"/>
<path d="M14 6C12.9391 6 11.9217 6.42143 11.1716 7.17157C10.4214 7.92172 10 8.93913 10 10C10 11.0609 10.4214 12.0783 11.1716 12.8284C11.9217 13.5786 12.9391 14 14 14C15.0609 14 16.0783 13.5786 16.8284 12.8284C17.5786 12.0783 18 11.0609 18 10C18 8.93913 17.5786 7.92172 16.8284 7.17157C16.0783 6.42143 15.0609 6 14 6ZM11 10C11 9.20435 11.3161 8.44129 11.8787 7.87868C12.4413 7.31607 13.2044 7 14 7C14.7956 7 15.5587 7.31607 16.1213 7.87868C16.6839 8.44129 17 9.20435 17 10C17 10.7956 16.6839 11.5587 16.1213 12.1213C15.5587 12.6839 14.7956 13 14 13C13.2044 13 12.4413 12.6839 11.8787 12.1213C11.3161 11.5587 11 10.7956 11 10ZM9.009 15C8.7456 14.9988 8.48456 15.0497 8.24087 15.1496C7.99718 15.2496 7.77564 15.3968 7.58896 15.5826C7.40229 15.7684 7.25417 15.9893 7.1531 16.2325C7.05203 16.4758 7 16.7366 7 17C7 18.691 7.833 19.966 9.135 20.797C10.417 21.614 12.145 22 14 22C15.855 22 17.583 21.614 18.865 20.797C20.167 19.967 21 18.69 21 17C21 16.4696 20.7893 15.9609 20.4142 15.5858C20.0391 15.2107 19.5304 15 19 15H9.009ZM8 17C8 16.447 8.448 16 9.009 16H19C19.2652 16 19.5196 16.1054 19.7071 16.2929C19.8946 16.4804 20 16.7348 20 17C20 18.309 19.378 19.284 18.327 19.953C17.257 20.636 15.735 21 14 21C12.265 21 10.743 20.636 9.673 19.953C8.623 19.283 8 18.31 8 17Z" fill="#1F1F1F"/>
</svg>
