<svg width="28" height="28" viewBox="0 0 28 28" fill="none" xmlns="http://www.w3.org/2000/svg">
<rect width="28" height="28" rx="4" fill="#F6F6FA"/>
<path d="M14 18.23C14.1427 18.23 14.2617 18.1823 14.357 18.087C14.4523 17.9917 14.5 17.873 14.5 17.731V13.077C14.5 12.935 14.452 12.8163 14.356 12.721C14.26 12.6257 14.141 12.5777 13.999 12.577C13.857 12.5763 13.7383 12.6243 13.643 12.721C13.5477 12.8177 13.5 12.9363 13.5 13.077V17.731C13.5 17.8723 13.548 17.991 13.644 18.087C13.74 18.183 13.859 18.231 14.001 18.231M14 11C14.1747 11 14.321 10.941 14.439 10.823C14.5563 10.705 14.615 10.559 14.615 10.385C14.615 10.2103 14.556 10.064 14.438 9.946C14.32 9.828 14.174 9.76934 14 9.77C13.826 9.77067 13.68 9.82967 13.562 9.947C13.444 10.0643 13.385 10.2107 13.385 10.386C13.385 10.5613 13.444 10.7073 13.562 10.824C13.68 10.9407 13.826 10.9993 14 11ZM14 22.842C13.9093 22.842 13.8137 22.8337 13.713 22.817C13.6123 22.8003 13.519 22.7753 13.433 22.742C11.4643 21.992 9.9 20.72 8.74 18.926C7.58 17.132 7 15.19 7 13.1V8.817C7 8.47434 7.09767 8.16567 7.293 7.891C7.48767 7.61634 7.74 7.41734 8.05 7.294L13.435 5.294C13.6297 5.22334 13.818 5.188 14 5.188C14.182 5.188 14.3707 5.22334 14.566 5.294L19.95 7.294C20.2593 7.418 20.5117 7.617 20.707 7.891C20.9023 8.16567 21 8.47434 21 8.817V13.1C21 15.19 20.42 17.132 19.26 18.926C18.1 20.72 16.536 21.992 14.568 22.742C14.4807 22.7753 14.387 22.8003 14.287 22.817C14.187 22.8337 14.0913 22.842 14 22.842ZM14 21.9C15.7333 21.35 17.1667 20.25 18.3 18.6C19.4333 16.95 20 15.1167 20 13.1V8.798C20 8.67 19.9647 8.55467 19.894 8.452C19.824 8.34934 19.7247 8.27267 19.596 8.222L14.212 6.222C14.148 6.19534 14.0773 6.182 14 6.182C13.9227 6.182 13.852 6.19534 13.788 6.222L8.404 8.222C8.27533 8.27267 8.176 8.34934 8.106 8.452C8.03533 8.55467 8 8.67 8 8.798V13.1C8 15.1167 8.56667 16.95 9.7 18.6C10.8333 20.25 12.2667 21.35 14 21.9Z" fill="#1F1F1F"/>
</svg>
