<svg width="28" height="28" viewBox="0 0 28 28" fill="none" xmlns="http://www.w3.org/2000/svg">
<rect width="28" height="28" rx="4" fill="#F6F6FA"/>
<path d="M15.875 5.25C15.3777 5.25 14.9008 5.44754 14.5492 5.79917C14.1975 6.15081 14 6.62772 14 7.125V10.25C14 10.7473 14.1975 11.2242 14.5492 11.5758C14.9008 11.9275 15.3777 12.125 15.875 12.125V13.0581C15.875 13.9087 16.9175 14.32 17.4981 13.6981L18.9656 12.125H20.875C21.3723 12.125 21.8492 11.9275 22.2008 11.5758C22.5525 11.2242 22.75 10.7473 22.75 10.25V7.125C22.75 6.62772 22.5525 6.15081 22.2008 5.79917C21.8492 5.44754 21.3723 5.25 20.875 5.25H15.875ZM14.625 7.125C14.625 6.79348 14.7567 6.47554 14.9911 6.24112C15.2255 6.0067 15.5435 5.875 15.875 5.875H20.875C21.2065 5.875 21.5245 6.0067 21.7589 6.24112C21.9933 6.47554 22.125 6.79348 22.125 7.125V10.25C22.125 10.5815 21.9933 10.8995 21.7589 11.1339C21.5245 11.3683 21.2065 11.5 20.875 11.5H18.83C18.7871 11.5 18.7446 11.5088 18.7053 11.5259C18.6659 11.543 18.6305 11.568 18.6012 11.5994L17.0412 13.2712C16.9985 13.3172 16.9429 13.3492 16.8816 13.3631C16.8204 13.377 16.7564 13.3721 16.698 13.3491C16.6396 13.3261 16.5895 13.286 16.5541 13.2341C16.5188 13.1822 16.5 13.1209 16.5 13.0581V11.8125C16.5 11.7296 16.4671 11.6501 16.4085 11.5915C16.3499 11.5329 16.2704 11.5 16.1875 11.5H15.875C15.5435 11.5 15.2255 11.3683 14.9911 11.1339C14.7567 10.8995 14.625 10.5815 14.625 10.25V7.125ZM10.5625 9.625C9.89946 9.625 9.26357 9.88839 8.79473 10.3572C8.32589 10.8261 8.0625 11.462 8.0625 12.125C8.0625 12.788 8.32589 13.4239 8.79473 13.8928C9.26357 14.3616 9.89946 14.625 10.5625 14.625C11.2255 14.625 11.8614 14.3616 12.3303 13.8928C12.7991 13.4239 13.0625 12.788 13.0625 12.125C13.0625 11.462 12.7991 10.8261 12.3303 10.3572C11.8614 9.88839 11.2255 9.625 10.5625 9.625ZM7.4375 12.125C7.4375 11.2962 7.76674 10.5013 8.35279 9.91529C8.93884 9.32924 9.7337 9 10.5625 9C11.3913 9 12.1862 9.32924 12.7722 9.91529C13.3583 10.5013 13.6875 11.2962 13.6875 12.125C13.6875 12.9538 13.3583 13.7487 12.7722 14.3347C12.1862 14.9208 11.3913 15.25 10.5625 15.25C9.7337 15.25 8.93884 14.9208 8.35279 14.3347C7.76674 13.7487 7.4375 12.9538 7.4375 12.125ZM5.25 18.375C5.25 17.8777 5.44754 17.4008 5.79917 17.0492C6.15081 16.6975 6.62772 16.5 7.125 16.5H14C14.4973 16.5 14.9742 16.6975 15.3258 17.0492C15.6775 17.4008 15.875 17.8777 15.875 18.375V18.6875C15.875 19.0625 15.7 20.0725 14.945 20.995C14.1762 21.9338 12.8344 22.75 10.5625 22.75C8.29063 22.75 6.94812 21.9338 6.18 20.995C5.42562 20.0725 5.25 19.0625 5.25 18.6875V18.375ZM7.125 17.125C6.79348 17.125 6.47554 17.2567 6.24112 17.4911C6.0067 17.7255 5.875 18.0435 5.875 18.375V18.6875C5.875 18.9375 6.0125 19.8025 6.66375 20.5988C7.30125 21.3787 8.45937 22.125 10.5625 22.125C12.6656 22.125 13.8231 21.3787 14.4613 20.5988C15.1131 19.8025 15.25 18.9375 15.25 18.6875V18.375C15.25 18.0435 15.1183 17.7255 14.8839 17.4911C14.6495 17.2567 14.3315 17.125 14 17.125H7.125Z" fill="#1F1F1F"/>
</svg>
