<svg width="24" height="24" viewBox="0 0 24 24" fill="none" xmlns="http://www.w3.org/2000/svg">
<path opacity="0.965" fill-rule="evenodd" clip-rule="evenodd" d="M10.2421 0.726562C12.0539 0.737939 13.5148 1.45669 14.6249 2.88281C15.341 3.87353 15.841 4.9673 16.1249 6.16406C16.2645 5.73075 16.3895 5.29327 16.4999 4.85156C16.7339 4.46108 17.0698 4.32826 17.5077 4.45312C18.3175 4.90327 18.9972 5.50486 19.5468 6.25781C21.2286 8.87583 21.9318 11.7352 21.6562 14.8359C21.0027 18.5891 18.9168 21.1907 15.3984 22.6406C11.971 23.7895 8.81477 23.2895 5.92962 21.1406C2.85412 18.4301 1.69006 15.0473 2.43743 10.9922C2.90816 9.14475 3.70503 7.45725 4.82806 5.92969C5.10931 5.55469 5.39056 5.17969 5.67181 4.80469C6.09682 4.2882 6.54996 4.25695 7.03118 4.71094C7.21024 5.27175 7.42118 5.81859 7.66399 6.35156C8.05249 5.44936 8.51341 4.58997 9.04681 3.77344C9.48541 2.9877 9.70418 2.14395 9.70306 1.24219C9.81729 0.994978 9.99701 0.823102 10.2421 0.726562ZM11.1327 2.36719C11.6734 2.45007 12.1578 2.66101 12.5859 3C13.759 4.11945 14.4699 5.48663 14.7187 7.10156C14.7903 7.59919 14.8372 8.0992 14.8593 8.60156C15.037 9.06938 15.3729 9.24905 15.8671 9.14062C16.1987 8.96541 16.4721 8.72325 16.6874 8.41406C17.1022 7.81889 17.4304 7.17825 17.6718 6.49219C18.4355 7.28419 18.998 8.20608 19.3593 9.25781C19.9957 10.9041 20.2613 12.6072 20.1562 14.3672C19.6191 17.9039 17.6582 20.2398 14.2734 21.375C10.8662 22.2078 7.99901 21.325 5.67181 18.7266C3.97844 16.5264 3.40031 14.0577 3.93743 11.3203C4.37321 9.66759 5.10757 8.16759 6.14056 6.82031C6.49132 7.57706 6.95224 8.25675 7.52337 8.85938C7.8671 9.07814 8.21088 9.07814 8.55462 8.85938C8.65385 8.77823 8.72416 8.67666 8.76556 8.55469C8.82495 7.92652 8.96557 7.31714 9.18743 6.72656C9.67484 5.79867 10.1749 4.87683 10.6874 3.96094C10.909 3.44971 11.0574 2.91846 11.1327 2.36719Z" fill="#A0A0A0"/>
<path opacity="0.952" fill-rule="evenodd" clip-rule="evenodd" d="M9.11715 10.6638C10.1306 10.5603 10.6228 11.0134 10.5937 12.0232C10.3798 12.736 9.9032 13.0251 9.16402 12.8904C8.5276 12.6729 8.25418 12.2276 8.34371 11.5545C8.44581 11.1168 8.70362 10.8199 9.11715 10.6638Z" fill="#A0A0A0"/>
<path opacity="0.957" fill-rule="evenodd" clip-rule="evenodd" d="M14.6017 10.664C15.1969 10.5721 15.5407 10.8221 15.6329 11.414C15.6226 11.6247 15.5523 11.8122 15.422 11.9765C13.4836 14.1571 11.5539 16.3446 9.63292 18.539C9.34534 18.7393 9.03283 18.7784 8.69542 18.6562C8.26609 18.2919 8.21139 17.8778 8.53136 17.414C10.4551 15.2561 12.3613 13.0842 14.2501 10.8984C14.3638 10.8069 14.481 10.7288 14.6017 10.664Z" fill="#A0A0A0"/>
<path opacity="0.952" fill-rule="evenodd" clip-rule="evenodd" d="M14.1329 16.4767C15.015 16.3543 15.515 16.7293 15.6329 17.6017C15.6052 18.1657 15.3239 18.5329 14.7892 18.7033C13.6906 18.7765 13.2297 18.2687 13.4063 17.1798C13.5519 16.8388 13.7941 16.6044 14.1329 16.4767Z" fill="#A0A0A0"/>
</svg>
