<svg width="25" height="24" viewBox="0 0 25 24" fill="none" xmlns="http://www.w3.org/2000/svg">
<path fill-rule="evenodd" clip-rule="evenodd" d="M8.50194 4.5529C11.1983 4.34967 13.9065 4.36301 16.6007 4.59277L18.2245 4.73124C19.451 4.83584 20.4464 5.76665 20.6329 6.9834L20.7353 7.65173C21.0829 9.91963 21.0505 12.2296 20.6392 14.4868C20.4362 15.6006 19.4661 16.41 18.334 16.41H9.35756C9.15104 16.41 8.94774 16.4611 8.76583 16.5589L4.85504 18.6606C4.62261 18.7855 4.34163 18.7791 4.11515 18.6437C3.88867 18.5083 3.75 18.2639 3.75 18V9.48269C3.75 6.90409 5.73741 4.76126 8.30871 4.56746L8.50194 4.5529ZM8.5 9.49998C7.80964 9.49998 7.25 10.0596 7.25 10.75C7.25 11.4403 7.80964 12 8.5 12C9.19036 12 9.75 11.4403 9.75 10.75C9.75 10.0596 9.19036 9.49998 8.5 9.49998ZM12.5 9.49998C11.8096 9.49998 11.25 10.0596 11.25 10.75C11.25 11.4403 11.8096 12 12.5 12C13.1904 12 13.75 11.4403 13.75 10.75C13.75 10.0596 13.1904 9.49998 12.5 9.49998ZM15.25 10.75C15.25 10.0596 15.8096 9.49998 16.5 9.49998C17.1904 9.49998 17.75 10.0596 17.75 10.75C17.75 11.4403 17.1904 12 16.5 12C15.8096 12 15.25 11.4403 15.25 10.75Z" fill="#E04836"/>
</svg>
