<svg width="26" height="27" viewBox="0 0 26 27" fill="none" xmlns="http://www.w3.org/2000/svg">
<path d="M25.67 13.5C25.67 20.5692 19.9236 26.3 12.835 26.3C5.74643 26.3 0 20.5692 0 13.5C0 6.43075 5.74643 0.699997 12.835 0.699997C19.9236 0.699997 25.67 6.43075 25.67 13.5Z" fill="#1F1F1F"/>
<path d="M10.0435 11.5759C10.0435 12.924 11.1369 14.017 12.4856 14.017V14.017C13.8344 14.017 14.9278 12.924 14.9278 11.5759" stroke="white" stroke-width="1.3" stroke-linecap="round" stroke-linejoin="round"/>
<path d="M10.1123 9.7618V9.41307C10.1123 8.06489 11.2057 6.97197 12.5545 6.97197V6.97197C13.9033 6.97197 14.9967 8.06489 14.9967 9.41307V9.7618" stroke="white" stroke-width="1.3" stroke-linecap="round" stroke-linejoin="round"/>
<path fill-rule="evenodd" clip-rule="evenodd" d="M8.69184 9.76189C7.95492 9.76189 7.34502 10.3346 7.29905 11.0698L6.97878 16.192C6.92471 17.0567 7.23065 17.9052 7.82412 18.5367C8.4176 19.1681 9.24581 19.5263 10.1126 19.5263H14.9967C15.8635 19.5263 16.6917 19.1682 17.2852 18.5367C17.8787 17.9053 18.1846 17.0567 18.1306 16.192L17.8103 11.0698C17.7643 10.3346 17.1544 9.76189 16.4175 9.76189H8.69184Z" stroke="white" stroke-width="1.3" stroke-linecap="round" stroke-linejoin="round"/>
</svg>
