<svg width="32" height="32" viewBox="0 0 32 32" fill="none" xmlns="http://www.w3.org/2000/svg">
<path fill-rule="evenodd" clip-rule="evenodd" d="M16 0C7.16344 0 0 7.16344 0 16C0 24.8366 7.16344 32 16 32C24.8366 32 32 24.8366 32 16C32 7.16344 24.8366 0 16 0ZM16.1635 8H16.1642C16.5436 8 17.3016 8.05314 18.1147 8.40886C18.582 8.61348 19.0021 8.8903 19.3638 9.23182C19.7951 9.63935 20.1463 10.142 20.4078 10.7265C20.7894 11.5798 20.6986 13.0172 20.6254 14.1722L20.6225 14.2211L20.6198 14.2637C20.6136 14.3626 20.6077 14.458 20.6022 14.5512C20.6518 14.5738 20.7284 14.5974 20.8375 14.6029C21.0428 14.5932 21.2819 14.5251 21.5488 14.4005C21.6735 14.3425 21.8052 14.3303 21.8942 14.3303C22.0248 14.3303 22.1531 14.3548 22.2656 14.4012C22.5988 14.5201 22.8082 14.7628 22.8135 15.0359C22.8157 15.1488 22.7815 15.3214 22.6062 15.5014C22.4594 15.6525 22.2369 15.7855 21.9256 15.9081C21.8537 15.9364 21.7674 15.9637 21.6758 15.9925C21.3596 16.0926 20.8816 16.2439 20.7572 16.5363C20.6939 16.685 20.7208 16.88 20.8375 17.1162C20.8407 17.1225 20.8438 17.129 20.8465 17.1355C20.889 17.2348 21.9169 19.5723 24.1984 19.9472C24.4002 19.9802 24.5444 20.1597 24.5328 20.3629C24.5296 20.4227 24.5152 20.4816 24.4906 20.5383C24.4086 20.7276 24.2199 20.889 23.9133 21.0308C23.5378 21.2046 22.9765 21.3506 22.2441 21.4652C22.2074 21.5357 22.1679 21.7152 22.143 21.8284L22.1426 21.8304C22.1141 21.9608 22.0851 22.0896 22.0446 22.2267C21.9836 22.435 21.8238 22.554 21.6064 22.554H21.5964L21.5867 22.5539C21.4881 22.5539 21.3596 22.5382 21.1943 22.5058C20.941 22.4565 20.6572 22.411 20.2989 22.411C20.0908 22.411 19.8754 22.4293 19.6585 22.4652C19.2406 22.5346 18.8805 22.788 18.4635 23.0816L18.4631 23.0819L18.4622 23.0828L18.4618 23.083C17.852 23.5129 17.1611 24 16.1052 24C16.0595 24 16.0163 23.9987 15.9814 23.9971C15.9529 23.9991 15.924 24 15.8952 24C14.8393 24 14.1482 23.5129 13.5377 23.0826C13.1206 22.7885 12.76 22.5346 12.3419 22.4652C12.1249 22.4292 11.9094 22.411 11.7014 22.411C11.3263 22.411 11.0258 22.4696 10.806 22.5126L10.8009 22.5136C10.653 22.5422 10.5251 22.567 10.4136 22.567C10.1163 22.567 10.0005 22.3856 9.95592 22.2339C9.91456 22.0938 9.88555 21.9619 9.85773 21.8337L9.85619 21.8267C9.82968 21.7063 9.79205 21.5355 9.75578 21.4667C9.02392 21.3522 8.46239 21.206 8.08693 21.0321C7.77967 20.8896 7.59068 20.7281 7.50916 20.538L7.50859 20.537C7.48466 20.4804 7.47086 20.4219 7.46741 20.3633C7.45618 20.1598 7.60014 19.9807 7.80174 19.9477C8.31511 19.8634 8.80508 19.6726 9.25789 19.3808C9.62889 19.1417 9.97799 18.8339 10.2949 18.4656C10.8527 17.8179 11.1246 17.2037 11.1538 17.1359C11.1566 17.1293 11.1596 17.123 11.1627 17.1165C11.2793 16.8805 11.3065 16.6852 11.2433 16.5368C11.1187 16.2444 10.6413 16.0931 10.3253 15.993L10.3243 15.9927L10.3231 15.9923C10.2324 15.9636 10.1469 15.9366 10.0748 15.9082C9.79868 15.7995 9.58479 15.6771 9.43919 15.5445C9.17448 15.3035 9.17337 15.0659 9.19628 14.9457C9.23105 14.7639 9.35905 14.6 9.55715 14.484C9.7146 14.3917 9.89612 14.3412 10.0683 14.3412C10.1755 14.3412 10.2726 14.3612 10.3577 14.4007C10.6469 14.5358 10.9027 14.6044 11.1179 14.6044C11.2516 14.6044 11.3423 14.5773 11.3982 14.5517C11.3915 14.4379 11.3841 14.3213 11.377 14.2085L11.3748 14.1732L11.3745 14.1714L11.3745 14.171C11.3018 13.0168 11.2113 11.5808 11.5927 10.7282C11.8531 10.1458 12.203 9.64438 12.6326 9.23773C12.9929 8.89643 13.4116 8.61957 13.8772 8.41481C14.6914 8.05645 15.4495 8.00309 15.8284 8.00309L16.1217 8.00018C16.1349 8 16.1487 8 16.1635 8Z" fill="#212121"/>
</svg>
