<svg width="21" height="21" viewBox="0 0 21 21" fill="none" xmlns="http://www.w3.org/2000/svg">
<path d="M11.6916 3.29501L13.1583 6.22834C13.3583 6.63667 13.8916 7.02834 14.3416 7.10334L16.9999 7.54501C18.6999 7.82834 19.0999 9.06167 17.8749 10.2783L15.8083 12.345C15.4583 12.695 15.2666 13.37 15.3749 13.8533L15.9666 16.4117C16.4333 18.4367 15.3583 19.22 13.5666 18.1617L11.0749 16.6867C10.6249 16.42 9.88326 16.42 9.42492 16.6867L6.93326 18.1617C5.14992 19.22 4.06659 18.4283 4.53326 16.4117L5.12492 13.8533C5.23326 13.37 5.04159 12.695 4.69159 12.345L2.62492 10.2783C1.40826 9.06167 1.79992 7.82834 3.49992 7.54501L6.15826 7.10334C6.59992 7.02834 7.13326 6.63667 7.33326 6.22834L8.79992 3.29501C9.59992 1.70334 10.8999 1.70334 11.6916 3.29501Z" fill="#FFD33C"/>
</svg>
