<svg width="21" height="21" viewBox="0 0 21 21" fill="none" xmlns="http://www.w3.org/2000/svg">
<path d="M7.51367 8.29785C7.51367 9.96828 8.86848 11.3224 10.5397 11.3224V11.3224C12.2109 11.3224 13.5658 9.96828 13.5658 8.29785" stroke="#1F1F1F" stroke-width="1.3" stroke-linecap="round" stroke-linejoin="round"/>
<path d="M7.59961 6.05042V5.61833C7.59961 3.9479 8.95441 2.59375 10.6257 2.59375V2.59375C12.2969 2.59375 13.6517 3.9479 13.6517 5.61833V6.05042" stroke="#1F1F1F" stroke-width="1.3" stroke-linecap="round" stroke-linejoin="round"/>
<path fill-rule="evenodd" clip-rule="evenodd" d="M5.83965 6.05029C4.92656 6.05029 4.17086 6.75994 4.1139 7.67081L3.71706 14.0173C3.65006 15.0887 4.02914 16.1401 4.7645 16.9225C5.49985 17.7049 6.52606 18.1486 7.60006 18.1486H13.6518C14.7258 18.1486 15.7521 17.7049 16.4874 16.9225C17.2228 16.1401 17.6019 15.0887 17.5349 14.0173L17.138 7.67081C17.0811 6.75994 16.3254 6.05029 15.4123 6.05029H5.83965Z" stroke="#1F1F1F" stroke-width="1.3" stroke-linecap="round" stroke-linejoin="round"/>
</svg>
