<svg width="24" height="24" viewBox="0 0 24 24" fill="none" xmlns="http://www.w3.org/2000/svg">
<g clip-path="url(#clip0_383_12615)">
<path opacity="0.954" fill-rule="evenodd" clip-rule="evenodd" d="M8.27344 -0.0234375C8.71092 -0.0234375 9.14845 -0.0234375 9.58594 -0.0234375C10.6849 0.328511 11.3256 1.07851 11.5078 2.22656C12.1844 2.59857 12.7312 3.10638 13.1484 3.75C14.6837 3.75066 16.215 3.78191 17.7422 3.84375C17.7812 3.88281 17.8203 3.92188 17.8594 3.96094C17.8906 5.03906 17.8906 6.11719 17.8594 7.19531C17.6457 7.48158 17.4113 7.49719 17.1562 7.24219C17.1328 6.33609 17.125 5.42981 17.1328 4.52344C15.9297 4.52344 14.7266 4.52344 13.5234 4.52344C13.6136 5.05083 13.637 5.58206 13.5938 6.11719C13.5547 6.15623 13.5156 6.19533 13.4766 6.23438C11.9559 6.28856 10.4325 6.312 8.90625 6.30469C7.42969 6.29686 5.95312 6.28908 4.47656 6.28125C4.34375 6.2422 4.25781 6.15623 4.21875 6.02344C4.17313 5.51616 4.2122 5.01619 4.33594 4.52344C3.13281 4.52344 1.92969 4.52344 0.726562 4.52344C0.726562 10.7578 0.726562 16.9922 0.726562 23.2266C6.17967 23.2266 11.6328 23.2266 17.0859 23.2266C17.0782 23.0384 17.086 22.8509 17.1094 22.6641C17.3416 22.4145 17.576 22.4145 17.8125 22.6641C17.8438 23.0391 17.8438 23.4141 17.8125 23.7891C17.7815 23.8586 17.7424 23.9211 17.6953 23.9766C11.8359 23.9766 5.97656 23.9766 0.117188 23.9766C0.0859373 23.9141 0.0390625 23.8672 -0.0234375 23.8359C-0.0234375 17.211 -0.0234375 10.5859 -0.0234375 3.96094C0.0148329 3.88389 0.077333 3.8292 0.164062 3.79688C1.67993 3.78906 3.19555 3.76562 4.71094 3.72656C5.09334 3.07852 5.62458 2.59414 6.30469 2.27344C6.49383 1.10039 7.15008 0.334766 8.27344 -0.0234375ZM8.60156 0.726562C9.95859 0.716452 10.6695 1.38833 10.7344 2.74219C11.0976 2.93544 11.4492 3.14638 11.7891 3.375C12.4152 3.94756 12.7589 4.6585 12.8203 5.50781C10.2109 5.50781 7.60158 5.50781 4.99219 5.50781C5.03578 4.55327 5.44205 3.79546 6.21094 3.23438C6.48202 3.0638 6.75544 2.89973 7.03125 2.74219C7.04025 1.65875 7.5637 0.986873 8.60156 0.726562ZM8.78906 2.13281C9.45877 2.22221 9.6697 2.58158 9.42188 3.21094C9.13697 3.53035 8.81667 3.56941 8.46094 3.32812C8.19952 3.05373 8.16047 2.74905 8.34375 2.41406C8.47702 2.28925 8.62542 2.1955 8.78906 2.13281Z" fill="#A0A0A0"/>
<path opacity="0.929" fill-rule="evenodd" clip-rule="evenodd" d="M8.55465 1.3828C9.61093 1.29277 10.2047 1.76933 10.3359 2.81249C10.2062 3.86234 9.61248 4.33109 8.55465 4.21874C7.78627 3.98097 7.4191 3.45753 7.45309 2.64842C7.56081 1.99255 7.92802 1.57068 8.55465 1.3828ZM8.78902 2.1328C8.62538 2.19548 8.47698 2.28923 8.34371 2.41405C8.16043 2.74903 8.19948 3.05372 8.4609 3.32811C8.81663 3.5694 9.13693 3.53033 9.42184 3.21092C9.66967 2.58157 9.45873 2.22219 8.78902 2.1328Z" fill="#A0A0A0"/>
<path opacity="0.934" fill-rule="evenodd" clip-rule="evenodd" d="M23.9766 11.7422C23.9766 13.9922 23.9766 16.2422 23.9766 18.4922C21.7041 19.7301 19.4228 20.9566 17.1328 22.1719C17.0391 22.2031 16.9453 22.2031 16.8516 22.1719C14.5812 20.7607 12.3234 19.331 10.0781 17.8828C10.0242 16.8544 10.0007 15.8232 10.0078 14.7891C10.001 13.7399 10.0244 12.6931 10.0781 11.6484C10.1829 11.5453 10.3 11.4594 10.4297 11.3906C12.5547 10.25 14.6797 9.10936 16.8047 7.96875C16.9516 7.93172 17.0922 7.94733 17.2266 8.01563C19.4854 9.24647 21.7354 10.4887 23.9766 11.7422ZM16.9453 8.78907C18.9133 9.81071 20.8665 10.8654 22.8047 11.9531C22.3237 12.2053 21.8471 12.4631 21.375 12.7266C19.4555 11.6899 17.5414 10.643 15.6328 9.58594C15.5703 9.55468 15.5703 9.52346 15.6328 9.49219C16.0732 9.25646 16.5107 9.02208 16.9453 8.78907ZM14.6484 10.0078C16.7328 11.136 18.8109 12.2766 20.8828 13.4297C20.9453 14.0235 20.9453 14.6172 20.8828 15.2109C20.6328 15.3516 20.3828 15.4922 20.1328 15.6328C20.0938 15.0397 20.0703 14.4459 20.0625 13.8516C18.011 12.689 15.9407 11.5562 13.8516 10.4531C14.1201 10.3034 14.3858 10.155 14.6484 10.0078ZM12.9609 10.8984C13.1105 10.9262 13.2512 10.9809 13.3828 11.0625C15.2109 12.0703 17.0391 13.0781 18.8672 14.0859C18.2811 14.4338 17.6873 14.7697 17.0859 15.0938C16.9859 15.1235 16.8921 15.1079 16.8047 15.0469C14.9377 13.9962 13.0783 12.9338 11.2266 11.8594C11.8076 11.5378 12.3857 11.2174 12.9609 10.8984ZM10.7578 12.4922C12.6901 13.5795 14.6197 14.6732 16.5469 15.7734C16.5782 17.5391 16.5782 19.3047 16.5469 21.0703C14.625 19.8516 12.7031 18.6328 10.7813 17.4141C10.7578 15.7735 10.75 14.1329 10.7578 12.4922ZM23.1797 12.6328C23.2343 14.4374 23.2421 16.2499 23.2031 18.0703C21.2771 19.0919 19.3475 20.1076 17.4141 21.1172C17.3594 19.3518 17.3516 17.5861 17.3906 15.8203C18.0313 15.4609 18.6719 15.1016 19.3125 14.7422C19.3281 15.3047 19.3438 15.8672 19.3594 16.4297C19.449 16.6602 19.613 16.7461 19.8516 16.6875C20.4448 16.391 21.0229 16.0707 21.5859 15.7266C21.6472 15.6604 21.6863 15.5822 21.7031 15.4922C21.7187 14.8047 21.7344 14.1172 21.75 13.4297C22.2344 13.1705 22.7109 12.9048 23.1797 12.6328Z" fill="#A0A0A0"/>
<path opacity="0.927" fill-rule="evenodd" clip-rule="evenodd" d="M2.27344 8.08594C3.24232 8.07812 4.21106 8.08594 5.17969 8.10938C5.21874 8.14843 5.25783 8.18752 5.29688 8.22657C5.37281 9.1929 5.38842 10.1617 5.34375 11.1328C5.34066 11.2629 5.286 11.3645 5.17969 11.4375C4.26086 11.5139 3.33898 11.5295 2.41406 11.4844C2.25502 11.4659 2.15346 11.38 2.10938 11.2266C2.07812 10.2578 2.07812 9.28908 2.10938 8.32032C2.15612 8.23487 2.21081 8.15673 2.27344 8.08594ZM2.88281 8.78907C3.44531 8.78907 4.00781 8.78907 4.57031 8.78907C4.57031 9.41405 4.57031 10.0391 4.57031 10.6641C4.00781 10.6641 3.44531 10.6641 2.88281 10.6641C2.88281 10.0391 2.88281 9.41405 2.88281 8.78907Z" fill="#A0A0A0"/>
<path opacity="0.909" fill-rule="evenodd" clip-rule="evenodd" d="M6.30458 9.35157C8.07026 9.34374 9.83591 9.35157 11.6015 9.37501C11.9144 9.48451 12.0003 9.69544 11.8593 10.0078C11.8044 10.0731 11.7341 10.1122 11.6483 10.125C9.83581 10.1563 8.02334 10.1563 6.21083 10.125C6.11745 10.0981 6.04714 10.0434 5.99989 9.96094C5.89123 9.63727 5.99276 9.43412 6.30458 9.35157Z" fill="#A0A0A0"/>
<path opacity="0.914" fill-rule="evenodd" clip-rule="evenodd" d="M2.46091 12.9141C3.30481 12.9062 4.14856 12.9141 4.99216 12.9375C5.12229 12.9406 5.22382 12.9953 5.29685 13.1016C5.37279 14.0679 5.3884 15.0367 5.34373 16.0078C5.34063 16.1379 5.28598 16.2395 5.17966 16.3125C4.26021 16.3883 3.33834 16.404 2.41404 16.3594C2.30399 16.3432 2.21805 16.2885 2.15623 16.1953C2.07918 15.1995 2.06355 14.1995 2.10935 13.1953C2.18162 13.0363 2.29881 12.9426 2.46091 12.9141ZM2.88279 13.7109C3.44529 13.7109 4.00779 13.7109 4.57029 13.7109C4.57029 14.3359 4.57029 14.961 4.57029 15.5859C4.00779 15.5859 3.44529 15.5859 2.88279 15.5859C2.88279 14.961 2.88279 14.3359 2.88279 13.7109Z" fill="#A0A0A0"/>
<path opacity="0.902" fill-rule="evenodd" clip-rule="evenodd" d="M6.16414 14.2734C7.25802 14.2656 8.35175 14.2734 9.44539 14.2969C9.69275 14.4297 9.76306 14.625 9.65633 14.8828C9.5945 14.976 9.50858 15.0307 9.39852 15.0469C8.336 15.0781 7.27353 15.0781 6.21102 15.0469C6.00856 14.9942 5.91481 14.8614 5.92977 14.6484C5.93192 14.4747 6.01006 14.3497 6.16414 14.2734Z" fill="#A0A0A0"/>
<path opacity="0.926" fill-rule="evenodd" clip-rule="evenodd" d="M2.36729 17.8359C3.27368 17.8281 4.17993 17.8359 5.08604 17.8594C5.16976 17.8962 5.24007 17.9508 5.29698 18.0234C5.37292 18.9898 5.38853 19.9585 5.34386 20.9297C5.33622 21.0317 5.29717 21.1176 5.22667 21.1875C4.24647 21.2645 3.26209 21.2802 2.27354 21.2344C2.23448 21.1953 2.19542 21.1562 2.15636 21.1172C2.07982 20.1202 2.06419 19.1202 2.10948 18.1172C2.1415 17.9682 2.22744 17.8744 2.36729 17.8359ZM2.88292 18.6328C3.44542 18.6328 4.00792 18.6328 4.57042 18.6328C4.57042 19.2578 4.57042 19.8828 4.57042 20.5078C4.00792 20.5078 3.44542 20.5078 2.88292 20.5078C2.88292 19.8828 2.88292 19.2578 2.88292 18.6328Z" fill="#A0A0A0"/>
<path opacity="0.908" fill-rule="evenodd" clip-rule="evenodd" d="M5.97661 19.1484C7.64854 19.1406 9.32043 19.1484 10.9922 19.1719C11.2378 19.3254 11.2924 19.5363 11.1563 19.8047C11.0864 19.8752 11.0005 19.9142 10.8985 19.9219C9.27347 19.9531 7.6485 19.9531 6.02348 19.9219C5.72095 19.8277 5.63498 19.6324 5.76567 19.3359C5.83115 19.2624 5.90147 19.1998 5.97661 19.1484Z" fill="#A0A0A0"/>
</g>
<defs>
<clipPath id="clip0_383_12615">
<rect width="24" height="24" fill="white"/>
</clipPath>
</defs>
</svg>
