<svg width="21" height="20" viewBox="0 0 21 20" fill="none" xmlns="http://www.w3.org/2000/svg">
<rect width="20" height="20" transform="translate(0.25)" fill="white"/>
<path d="M5.24967 10.8333C2.94967 10.8333 1.08301 12.6917 1.08301 15C1.08301 17.3083 2.94967 19.1667 5.24967 19.1667C7.54967 19.1667 9.41634 17.3 9.41634 15C9.41634 12.7 7.55801 10.8333 5.24967 10.8333ZM3.54967 13.3H5.24967C5.56634 13.3 5.81634 13.5583 5.81634 13.8667C5.81634 14.175 5.56634 14.4333 5.24967 14.4333H3.54967C3.23301 14.4333 2.98301 14.175 2.98301 13.8667C2.98301 13.5583 3.23301 13.3 3.54967 13.3ZM6.94967 16.7H3.54967C3.23301 16.7 2.98301 16.4417 2.98301 16.1333C2.98301 15.825 3.24134 15.5667 3.54967 15.5667H6.95801C7.27467 15.5667 7.52467 15.825 7.52467 16.1333C7.52467 16.4417 7.26634 16.7 6.94967 16.7Z" fill="#E04836"/>
<path d="M14.417 2.5H6.08366C3.58366 2.5 1.91699 3.75 1.91699 6.66667V9.28333C1.91699 9.89167 2.54199 10.275 3.10033 10.0333C4.01699 9.63333 5.05866 9.48333 6.15033 9.65833C8.33366 10.0167 10.117 11.7417 10.5587 13.9083C10.6837 14.5417 10.7003 15.1583 10.617 15.75C10.5503 16.2417 10.9503 16.675 11.442 16.675H14.417C16.917 16.675 18.5837 15.425 18.5837 12.5083V6.66667C18.5837 3.75 16.917 2.5 14.417 2.5ZM14.8087 7.15833L12.2003 9.24167C11.6503 9.68333 10.9503 9.9 10.2503 9.9C9.55033 9.9 8.84199 9.68333 8.30033 9.24167L5.69199 7.15833C5.42533 6.94167 5.38366 6.54167 5.59199 6.275C5.80866 6.00833 6.20033 5.95833 6.46699 6.175L9.07533 8.25833C9.70866 8.76667 10.7837 8.76667 11.417 8.25833L14.0253 6.175C14.292 5.95833 14.692 6 14.9003 6.275C15.117 6.54167 15.0753 6.94167 14.8087 7.15833Z" fill="#E04836"/>
</svg>
