<svg width="34" height="34" viewBox="0 0 34 34" fill="none" xmlns="http://www.w3.org/2000/svg">
<ellipse cx="17" cy="17.3765" rx="17" ry="16.4626" fill="black" fill-opacity="0.24"/>
<g clip-path="url(#clip0_383_13221)">
<path d="M11.75 9.62952H22.25C22.4489 9.62952 22.6397 9.70604 22.7803 9.84224C22.921 9.97845 23 10.1632 23 10.3558V24.2592C23.0001 24.3242 22.9822 24.3879 22.9482 24.4439C22.9142 24.4999 22.8653 24.546 22.8066 24.5774C22.7479 24.6089 22.6816 24.6245 22.6146 24.6227C22.5476 24.6209 22.4823 24.6017 22.4255 24.5672L17 21.272L11.5745 24.5665C11.5178 24.601 11.4525 24.6201 11.3856 24.622C11.3186 24.6238 11.2524 24.6082 11.1937 24.5769C11.1351 24.5455 11.0862 24.4995 11.0521 24.4436C11.018 24.3878 11 24.3241 11 24.2592V10.3558C11 10.1632 11.079 9.97845 11.2197 9.84224C11.3603 9.70604 11.5511 9.62952 11.75 9.62952ZM21.5 11.0821H12.5V22.2903L17 19.5587L21.5 22.2903V11.0821Z" fill="white"/>
</g>
<defs>
<clipPath id="clip0_383_13221">
<rect width="24" height="23.2414" fill="white" transform="translate(5 5.75598)"/>
</clipPath>
</defs>
</svg>
