<svg width="30" height="30" viewBox="0 0 30 30" fill="none" xmlns="http://www.w3.org/2000/svg">
<rect width="30" height="30" rx="8" fill="#343434"/>
<path d="M16.0833 11.7584L17.1833 13.9584C17.3333 14.2584 17.7333 14.5584 18.0667 14.6084L20.0583 14.9418C21.3333 15.1584 21.6333 16.0751 20.7167 16.9918L19.1667 18.5501C18.9083 18.8084 18.7583 19.3168 18.8417 19.6834L19.2833 21.6084C19.6333 23.1251 18.825 23.7168 17.4833 22.9251L15.6167 21.8168C15.275 21.6168 14.725 21.6168 14.3833 21.8168L12.5083 22.9168C11.1667 23.7084 10.3583 23.1168 10.7083 21.6001L11.15 19.6751C11.2333 19.3168 11.0833 18.8084 10.825 18.5418L9.28333 17.0001C8.36666 16.0834 8.66666 15.1584 9.94166 14.9501L11.9333 14.6168C12.2667 14.5584 12.6667 14.2668 12.8167 13.9668L13.9167 11.7668C14.5083 10.5668 15.4917 10.5668 16.0833 11.7584Z" fill="white"/>
<path d="M10 13.1248C9.65833 13.1248 9.375 12.8415 9.375 12.4998V6.6665C9.375 6.32484 9.65833 6.0415 10 6.0415C10.3417 6.0415 10.625 6.32484 10.625 6.6665V12.4998C10.625 12.8415 10.3417 13.1248 10 13.1248Z" fill="white"/>
<path d="M20 13.1248C19.6583 13.1248 19.375 12.8415 19.375 12.4998V6.6665C19.375 6.32484 19.6583 6.0415 20 6.0415C20.3417 6.0415 20.625 6.32484 20.625 6.6665V12.4998C20.625 12.8415 20.3417 13.1248 20 13.1248Z" fill="white"/>
<path d="M15 8.95817C14.6583 8.95817 14.375 8.67484 14.375 8.33317V6.6665C14.375 6.32484 14.6583 6.0415 15 6.0415C15.3417 6.0415 15.625 6.32484 15.625 6.6665V8.33317C15.625 8.67484 15.3417 8.95817 15 8.95817Z" fill="white"/>
</svg>
