<svg width="33" height="32" viewBox="0 0 33 32" fill="none" xmlns="http://www.w3.org/2000/svg">
<rect x="0.17627" width="32" height="32" rx="4" fill="#F5F5F5"/>
<path d="M23.1763 10H9.17627C8.0717 10 7.17627 10.8954 7.17627 12V23C7.17627 24.1046 8.0717 25 9.17627 25H23.1763C24.2808 25 25.1763 24.1046 25.1763 23V12C25.1763 10.8954 24.2808 10 23.1763 10Z" stroke="#1F1F1F"/>
<path d="M7.17627 14C7.17627 12.114 7.17627 11.172 7.76227 10.586C8.34827 10 9.29027 10 11.1763 10H21.1763C23.0623 10 24.0043 10 24.5903 10.586C25.1763 11.172 25.1763 12.114 25.1763 14H7.17627Z" fill="#1F1F1F"/>
<path d="M11.1763 7V10M21.1763 7V10" stroke="#1F1F1F" stroke-linecap="round"/>
<path d="M14.6763 16H11.6763C11.4001 16 11.1763 16.2239 11.1763 16.5V17.5C11.1763 17.7761 11.4001 18 11.6763 18H14.6763C14.9524 18 15.1763 17.7761 15.1763 17.5V16.5C15.1763 16.2239 14.9524 16 14.6763 16Z" fill="#1F1F1F"/>
<path d="M14.6763 20H11.6763C11.4001 20 11.1763 20.2239 11.1763 20.5V21.5C11.1763 21.7761 11.4001 22 11.6763 22H14.6763C14.9524 22 15.1763 21.7761 15.1763 21.5V20.5C15.1763 20.2239 14.9524 20 14.6763 20Z" fill="#1F1F1F"/>
<path d="M20.6763 16H17.6763C17.4001 16 17.1763 16.2239 17.1763 16.5V17.5C17.1763 17.7761 17.4001 18 17.6763 18H20.6763C20.9524 18 21.1763 17.7761 21.1763 17.5V16.5C21.1763 16.2239 20.9524 16 20.6763 16Z" fill="#1F1F1F"/>
<path d="M20.6763 20H17.6763C17.4001 20 17.1763 20.2239 17.1763 20.5V21.5C17.1763 21.7761 17.4001 22 17.6763 22H20.6763C20.9524 22 21.1763 21.7761 21.1763 21.5V20.5C21.1763 20.2239 20.9524 20 20.6763 20Z" fill="#1F1F1F"/>
</svg>
