<svg width="22" height="21"  viewBox="0 0 22 21"  fill="none" xmlns="http://www.w3.org/2000/svg">
<path d="M4.99989 6.24597C6.19587 6.24597 7.16849 5.31222 7.16849 4.16403C7.16849 3.01584 6.19587 2.08209 4.99989 2.08209C3.80391 2.08209 2.8313 3.01584 2.8313 4.16403C2.8313 5.31222 3.80391 6.24597 4.99989 6.24597ZM4.99989 3.12306C5.59788 3.12306 6.08419 3.58994 6.08419 4.16403C6.08419 4.73812 5.59788 5.205 4.99989 5.205C4.4019 5.205 3.9156 4.73812 3.9156 4.16403C3.9156 3.58994 4.4019 3.12306 4.99989 3.12306Z" fill="#E04836"/>
<path d="M4.68563 10.3129C4.77745 10.3756 4.88736 10.4094 5.00008 10.4094C5.11279 10.4094 5.2227 10.3756 5.31452 10.3129C5.47934 10.201 9.35299 7.51579 9.33727 4.16388C9.33727 1.86802 7.3915 0 5.00008 0C2.60866 0 0.66289 1.86802 0.66289 4.16127C0.647167 7.51579 4.52082 10.201 4.68563 10.3129ZM5.00008 1.04097C6.79405 1.04097 8.25297 2.44159 8.25297 4.16648C8.26435 6.47639 5.87402 8.55052 5.00008 9.23079C4.12668 8.55 1.7358 6.47535 1.74719 4.16388C1.74719 2.44159 3.20611 1.04097 5.00008 1.04097Z" fill="#E04836"/>
</svg>
