<svg width="28" height="28" viewBox="0 0 28 28" fill="none" xmlns="http://www.w3.org/2000/svg">
<rect width="28" height="28" rx="4" fill="#F6F6FA"/>
<path d="M14 21.5C18.1421 21.5 21.5 18.1421 21.5 14C21.5 9.85786 18.1421 6.5 14 6.5C9.85786 6.5 6.5 9.85786 6.5 14C6.5 18.1421 9.85786 21.5 14 21.5Z" stroke="#1F1F1F"/>
<path d="M13.9997 19.4167C14.2298 19.4167 14.4163 19.2301 14.4163 19C14.4163 18.7699 14.2298 18.5833 13.9997 18.5833C13.7696 18.5833 13.583 18.7699 13.583 19C13.583 19.2301 13.7696 19.4167 13.9997 19.4167Z" fill="#1F1F1F"/>
<path d="M14 17.3333V16.6192C14 16.0242 14.2975 15.4683 14.7925 15.1383L15.2917 14.805C15.6634 14.5571 15.9682 14.2213 16.179 13.8273C16.3898 13.4334 16.5 12.9935 16.5 12.5467V12.3333C16.5 11.6703 16.2366 11.0344 15.7678 10.5656C15.2989 10.0967 14.663 9.83334 14 9.83334C13.337 9.83334 12.7011 10.0967 12.2322 10.5656C11.7634 11.0344 11.5 11.6703 11.5 12.3333" stroke="#1F1F1F"/>
</svg>
