<svg width="28" height="28" viewBox="0 0 28 28" fill="none" xmlns="http://www.w3.org/2000/svg">
<rect width="28" height="28" rx="4" fill="#F6F6FA"/>
<path d="M17.75 18.8225H14.75L11.4125 21.0425C10.9175 21.3725 10.25 21.02 10.25 20.42V18.8225C8 18.8225 6.5 17.3225 6.5 15.0725V10.5725C6.5 8.32249 8 6.82249 10.25 6.82249H17.75C20 6.82249 21.5 8.32249 21.5 10.5725V15.0725C21.5 17.3225 20 18.8225 17.75 18.8225Z" stroke="#1F1F1F" stroke-width="1" stroke-miterlimit="10" stroke-linecap="round" stroke-linejoin="round"/>
<path d="M13.9999 13.52V13.3625C13.9999 12.8525 14.3149 12.5825 14.6299 12.365C14.9374 12.155 15.2448 11.885 15.2448 11.39C15.2448 10.7 14.6899 10.145 13.9999 10.145C13.3099 10.145 12.7549 10.7 12.7549 11.39" stroke="#1F1F1F" stroke-width="1" stroke-linecap="round" stroke-linejoin="round"/>
<path opacity="0.4" d="M13.9966 15.3125H14.0034" stroke="#1F1F1F" stroke-width="1" stroke-linecap="round" stroke-linejoin="round"/>
</svg>
