<svg width="16" height="17" viewBox="0 0 16 17" fill="none" xmlns="http://www.w3.org/2000/svg">
<path d="M15.1988 4.35749C15.1448 4.32383 15.0831 4.30444 15.0196 4.30116C14.9561 4.29788 14.8928 4.31081 14.8356 4.33874C12.1069 5.67124 10.1675 5.05062 8.11438 4.39374C6.01 3.72062 3.83438 3.02499 0.835625 4.48999C0.77249 4.52078 0.719272 4.56869 0.682034 4.62825C0.644795 4.6878 0.625034 4.75663 0.625 4.82687V12.3269C0.62503 12.3905 0.641232 12.453 0.672081 12.5086C0.70293 12.5642 0.747414 12.6111 0.80135 12.6448C0.855286 12.6784 0.916902 12.6979 0.980407 12.7012C1.04391 12.7045 1.10722 12.6916 1.16438 12.6637C3.89313 11.3312 5.8325 11.9519 7.88563 12.6087C9.07313 12.9894 10.2894 13.3775 11.6619 13.3775C12.715 13.3775 13.8625 13.1487 15.1619 12.5125C15.225 12.4817 15.2782 12.4338 15.3155 12.3742C15.3527 12.3147 15.3725 12.2459 15.3725 12.1756V4.67562C15.3728 4.61223 15.357 4.5498 15.3266 4.49417C15.2962 4.43853 15.2522 4.39151 15.1988 4.35749ZM14.625 11.9375C12.0063 13.1381 10.1144 12.5331 8.11438 11.8931C6.92375 11.5112 5.71063 11.125 4.33813 11.125C3.4325 11.125 2.45813 11.2937 1.375 11.745V5.06249C3.99375 3.86187 5.88563 4.46687 7.88563 5.10687C9.86125 5.73999 11.9006 6.39249 14.625 5.25687V11.9375ZM8 6.62499C7.62916 6.62499 7.26665 6.73496 6.95831 6.94099C6.64996 7.14702 6.40964 7.43985 6.26773 7.78246C6.12581 8.12507 6.08868 8.50207 6.16103 8.86579C6.23338 9.2295 6.41195 9.5636 6.67418 9.82582C6.9364 10.088 7.27049 10.2666 7.63421 10.339C7.99792 10.4113 8.37492 10.3742 8.71753 10.2323C9.06014 10.0904 9.35298 9.85003 9.55901 9.54169C9.76503 9.23335 9.875 8.87083 9.875 8.49999C9.875 8.00271 9.67746 7.5258 9.32583 7.17417C8.9742 6.82254 8.49728 6.62499 8 6.62499ZM8 9.62499C7.7775 9.62499 7.55999 9.55901 7.37498 9.4354C7.18998 9.31178 7.04578 9.13608 6.96064 8.93051C6.87549 8.72495 6.85321 8.49875 6.89662 8.28052C6.94003 8.06229 7.04717 7.86183 7.20451 7.7045C7.36184 7.54716 7.5623 7.44002 7.78052 7.39661C7.99875 7.3532 8.22495 7.37548 8.43052 7.46063C8.63609 7.54578 8.81179 7.68997 8.9354 7.87498C9.05902 8.05998 9.125 8.27749 9.125 8.49999C9.125 8.79836 9.00647 9.08451 8.7955 9.29549C8.58452 9.50647 8.29837 9.62499 8 9.62499ZM3.375 6.49999V9.49999C3.375 9.59945 3.33549 9.69483 3.26517 9.76516C3.19484 9.83549 3.09946 9.87499 3 9.87499C2.90054 9.87499 2.80516 9.83549 2.73484 9.76516C2.66451 9.69483 2.625 9.59945 2.625 9.49999V6.49999C2.625 6.40054 2.66451 6.30515 2.73484 6.23483C2.80516 6.1645 2.90054 6.12499 3 6.12499C3.09946 6.12499 3.19484 6.1645 3.26517 6.23483C3.33549 6.30515 3.375 6.40054 3.375 6.49999ZM12.625 10.5V7.49999C12.625 7.40054 12.6645 7.30515 12.7348 7.23483C12.8052 7.1645 12.9005 7.12499 13 7.12499C13.0995 7.12499 13.1948 7.1645 13.2652 7.23483C13.3355 7.30515 13.375 7.40054 13.375 7.49999V10.5C13.375 10.5995 13.3355 10.6948 13.2652 10.7652C13.1948 10.8355 13.0995 10.875 13 10.875C12.9005 10.875 12.8052 10.8355 12.7348 10.7652C12.6645 10.6948 12.625 10.5995 12.625 10.5Z" fill="#E04836"/>
</svg>
