<svg width="25" height="24" viewBox="0 0 25 24" fill="none" xmlns="http://www.w3.org/2000/svg">
<path d="M9.08325 7C8.88434 7 8.69357 7.07902 8.55292 7.21967C8.41227 7.36032 8.33325 7.55109 8.33325 7.75C8.33325 7.94891 8.41227 8.13968 8.55292 8.28033C8.69357 8.42098 8.88434 8.5 9.08325 8.5H16.5833C16.7822 8.5 16.9729 8.42098 17.1136 8.28033C17.2542 8.13968 17.3333 7.94891 17.3333 7.75C17.3333 7.55109 17.2542 7.36032 17.1136 7.21967C16.9729 7.07902 16.7822 7 16.5833 7H9.08325ZM7.33325 11.75C7.33325 11.5511 7.41227 11.3603 7.55292 11.2197C7.69357 11.079 7.88434 11 8.08325 11H14.5833C14.7822 11 14.9729 11.079 15.1136 11.2197C15.2542 11.3603 15.3333 11.5511 15.3333 11.75C15.3333 11.9489 15.2542 12.1397 15.1136 12.2803C14.9729 12.421 14.7822 12.5 14.5833 12.5H8.08325C7.88434 12.5 7.69357 12.421 7.55292 12.2803C7.41227 12.1397 7.33325 11.9489 7.33325 11.75ZM10.0833 15C9.88434 15 9.69357 15.079 9.55292 15.2197C9.41227 15.3603 9.33325 15.5511 9.33325 15.75C9.33325 15.9489 9.41227 16.1397 9.55292 16.2803C9.69357 16.421 9.88434 16.5 10.0833 16.5H16.5833C16.7822 16.5 16.9729 16.421 17.1136 16.2803C17.2542 16.1397 17.3333 15.9489 17.3333 15.75C17.3333 15.5511 17.2542 15.3603 17.1136 15.2197C16.9729 15.079 16.7822 15 16.5833 15H10.0833Z" fill="#A0A0A0"/>
<path d="M2.33325 3.75C2.33325 2.784 3.11725 2 4.08325 2H20.5833C21.5493 2 22.3333 2.784 22.3333 3.75V20.25C22.3333 20.7141 22.1489 21.1592 21.8207 21.4874C21.4925 21.8156 21.0474 22 20.5833 22H4.08325C3.61912 22 3.174 21.8156 2.84582 21.4874C2.51763 21.1592 2.33325 20.7141 2.33325 20.25V3.75ZM4.08325 3.5C4.01695 3.5 3.95336 3.52634 3.90648 3.57322C3.85959 3.62011 3.83325 3.6837 3.83325 3.75V20.25C3.83325 20.388 3.94525 20.5 4.08325 20.5H20.5833C20.6496 20.5 20.7131 20.4737 20.76 20.4268C20.8069 20.3799 20.8333 20.3163 20.8333 20.25V3.75C20.8333 3.6837 20.8069 3.62011 20.76 3.57322C20.7131 3.52634 20.6496 3.5 20.5833 3.5H4.08325Z" fill="#A0A0A0"/>
</svg>
