<svg width="14" height="15" viewBox="0 0 14 15" fill="none" xmlns="http://www.w3.org/2000/svg">
<path d="M4.6665 3.85419C4.42734 3.85419 4.229 3.65585 4.229 3.41669V1.66669C4.229 1.42752 4.42734 1.22919 4.6665 1.22919C4.90567 1.22919 5.104 1.42752 5.104 1.66669V3.41669C5.104 3.65585 4.90567 3.85419 4.6665 3.85419Z" fill="#E04836"/>
<path d="M9.3335 3.85419C9.09433 3.85419 8.896 3.65585 8.896 3.41669V1.66669C8.896 1.42752 9.09433 1.22919 9.3335 1.22919C9.57266 1.22919 9.771 1.42752 9.771 1.66669V3.41669C9.771 3.65585 9.57266 3.85419 9.3335 3.85419Z" fill="#E04836"/>
<path d="M11.9582 6.23999H2.0415C1.80234 6.23999 1.604 6.04166 1.604 5.80249C1.604 5.56332 1.80234 5.36499 2.0415 5.36499H11.9582C12.1973 5.36499 12.3957 5.56332 12.3957 5.80249C12.3957 6.04166 12.1973 6.23999 11.9582 6.23999Z" fill="#E04836"/>
<path d="M9.33333 13.7709H4.66667C2.5375 13.7709 1.3125 12.5459 1.3125 10.4167V5.45835C1.3125 3.32919 2.5375 2.10419 4.66667 2.10419H9.33333C11.4625 2.10419 12.6875 3.32919 12.6875 5.45835V10.4167C12.6875 12.5459 11.4625 13.7709 9.33333 13.7709ZM4.66667 2.97919C2.99833 2.97919 2.1875 3.79002 2.1875 5.45835V10.4167C2.1875 12.085 2.99833 12.8959 4.66667 12.8959H9.33333C11.0017 12.8959 11.8125 12.085 11.8125 10.4167V5.45835C11.8125 3.79002 11.0017 2.97919 9.33333 2.97919H4.66667Z" fill="#E04836"/>
<path d="M4.95833 8.95836C4.8825 8.95836 4.80666 8.94087 4.73666 8.9117C4.66666 8.88253 4.6025 8.84169 4.54417 8.78919C4.49167 8.73086 4.45083 8.6667 4.42166 8.5967C4.39249 8.5267 4.375 8.45086 4.375 8.37503C4.375 8.22336 4.43917 8.0717 4.54417 7.96087C4.6025 7.90837 4.66666 7.86752 4.73666 7.83835C4.84166 7.79169 4.95834 7.78002 5.07501 7.80335C5.11001 7.80919 5.145 7.82085 5.18 7.83835C5.215 7.85002 5.25 7.86753 5.285 7.89087C5.31417 7.9142 5.34333 7.93753 5.37249 7.96087C5.39583 7.99003 5.42499 8.0192 5.44249 8.04836C5.46583 8.08336 5.48334 8.11836 5.49501 8.15336C5.51251 8.18836 5.52417 8.22335 5.53001 8.25835C5.53584 8.29919 5.54167 8.33419 5.54167 8.37503C5.54167 8.52669 5.47749 8.67836 5.37249 8.78919C5.26166 8.89419 5.11 8.95836 4.95833 8.95836Z" fill="#E04836"/>
<path d="M6.99984 8.95832C6.84817 8.95832 6.69651 8.89415 6.58568 8.78915C6.56234 8.75998 6.53901 8.73082 6.51568 8.70165C6.49235 8.66665 6.47483 8.63166 6.46316 8.59666C6.44566 8.56166 6.434 8.52666 6.42816 8.49166C6.42233 8.45083 6.4165 8.41582 6.4165 8.37499C6.4165 8.29915 6.434 8.22332 6.46316 8.15332C6.49233 8.08332 6.53318 8.01916 6.58568 7.96083C6.74901 7.79749 7.01151 7.74498 7.22151 7.83831C7.29734 7.86748 7.35567 7.90833 7.414 7.96083C7.519 8.07166 7.58317 8.22332 7.58317 8.37499C7.58317 8.41582 7.57734 8.45083 7.57151 8.49166C7.56568 8.52666 7.55401 8.56166 7.53651 8.59666C7.52485 8.63166 7.50733 8.66665 7.484 8.70165C7.46066 8.73082 7.43733 8.75998 7.414 8.78915C7.35567 8.84165 7.29734 8.88249 7.22151 8.91166C7.15151 8.94083 7.07567 8.95832 6.99984 8.95832Z" fill="#E04836"/>
<path d="M4.95833 11C4.8825 11 4.80666 10.9825 4.73666 10.9533C4.66666 10.9242 4.6025 10.8833 4.54417 10.8308C4.49167 10.7725 4.45083 10.7142 4.42166 10.6383C4.39249 10.5683 4.375 10.4925 4.375 10.4167C4.375 10.265 4.43917 10.1133 4.54417 10.0025C4.6025 9.95001 4.66666 9.90917 4.73666 9.88C4.9525 9.78667 5.20916 9.83918 5.37249 10.0025C5.39583 10.0317 5.42499 10.0608 5.44249 10.09C5.46583 10.125 5.48334 10.16 5.49501 10.195C5.51251 10.23 5.52417 10.265 5.53001 10.3058C5.53584 10.3408 5.54167 10.3817 5.54167 10.4167C5.54167 10.5683 5.47749 10.72 5.37249 10.8308C5.26166 10.9358 5.11 11 4.95833 11Z" fill="#E04836"/>
</svg>
