<svg width="30" height="30" viewBox="0 0 30 30" fill="none" xmlns="http://www.w3.org/2000/svg">
<g clip-path="url(#clip0_383_12472)">
<path opacity="0.946" fill-rule="evenodd" clip-rule="evenodd" d="M1.96289 -0.0292435C2.13867 -0.0292435 2.31445 -0.0292435 2.49023 -0.0292435C3.92555 0.846195 5.37086 1.71365 6.82617 2.5731C6.88242 2.6561 6.93123 2.74382 6.97266 2.83625C6.99217 3.38206 7.01174 3.92787 7.03125 4.47368C9.41408 6.85187 11.7969 9.23 14.1797 11.6082C15.6054 10.1852 17.0313 8.76216 18.457 7.33918C17.9039 4.59413 18.773 2.42063 21.0645 0.81871C21.7822 0.401434 22.5439 0.118782 23.3496 -0.0292435C23.8965 -0.0292435 24.4434 -0.0292435 24.9902 -0.0292435C25.4292 0.0418352 25.8589 0.168541 26.2793 0.350874C26.4833 0.589148 26.5321 0.852306 26.4258 1.14035C25.6267 1.99636 24.8064 2.83458 23.9648 3.65497C23.9258 4.06432 23.9258 4.47368 23.9648 4.88304C24.3866 5.28443 24.787 5.70353 25.166 6.14035C25.5567 6.17935 25.9472 6.17935 26.3379 6.14035C27.1989 5.26145 28.0778 4.40374 28.9746 3.56725C29.3229 3.48139 29.5866 3.5886 29.7656 3.88889C29.8262 4.11301 29.8945 4.32744 29.9707 4.53216C29.9707 5.38986 29.9707 6.24754 29.9707 7.10526C29.1432 9.97608 27.2292 11.516 24.2285 11.7251C23.6976 11.6839 23.1703 11.6351 22.6465 11.5789C21.5137 12.7095 20.3808 13.8402 19.248 14.9708C19.5294 15.1929 19.793 15.4366 20.0391 15.7018C20.2155 15.4667 20.4401 15.301 20.7129 15.2047C21.2779 15.2101 21.5026 15.4927 21.3867 16.0526C21.2914 16.2063 21.1743 16.3427 21.0352 16.462C20.9961 16.501 20.9961 16.5399 21.0352 16.5789C23.6055 18.9689 26.1933 21.3373 28.7988 23.6842C29.3225 24.1761 29.7132 24.7512 29.9707 25.4094C29.9707 26.0916 29.9707 26.7739 29.9707 27.4561C29.4774 28.7865 28.5399 29.6247 27.1582 29.9708C26.7285 29.9708 26.2988 29.9708 25.8691 29.9708C25.2734 29.8198 24.7265 29.5566 24.2285 29.1813C21.6581 26.4406 19.1093 23.6823 16.582 20.9064C16.4334 21.0744 16.2674 21.2206 16.084 21.345C15.5876 21.4538 15.2946 21.2589 15.2051 20.7602C15.2925 20.4504 15.4683 20.197 15.7324 20C15.5098 19.7192 15.2657 19.4561 15 19.2105C13.8672 20.3411 12.7344 21.4718 11.6016 22.6023C12.1332 25.3387 11.2641 27.5122 8.99414 29.1228C8.27678 29.5399 7.51506 29.8226 6.70898 29.9708C6.16213 29.9708 5.61523 29.9708 5.06836 29.9708C4.62935 29.8997 4.19966 29.773 3.7793 29.5906C3.57536 29.3523 3.52653 29.0892 3.63281 28.8012C4.47265 27.963 5.3125 27.1247 6.15234 26.2865C6.19143 25.8772 6.19143 25.4678 6.15234 25.0585C5.73242 24.6394 5.3125 24.2203 4.89258 23.8012C4.50195 23.7622 4.11133 23.7622 3.7207 23.8012C2.88086 24.6394 2.04101 25.4776 1.20117 26.3158C0.885703 26.4574 0.602502 26.4087 0.351562 26.1696C0.177064 25.6871 0.050111 25.1998 -0.0292969 24.7076C-0.0292969 24.3372 -0.0292969 23.9668 -0.0292969 23.5965C0.243042 21.3291 1.41492 19.7014 3.48633 18.7134C4.76036 18.1978 6.06896 18.0808 7.41211 18.3626C8.81836 16.9591 10.2246 15.5556 11.6309 14.152C9.24639 11.7918 6.88312 9.41356 4.54102 7.01754C4.01367 6.99807 3.48633 6.97853 2.95898 6.95906C2.84068 6.93274 2.73326 6.88403 2.63672 6.81286C1.731 5.33546 0.842332 3.85398 -0.0292969 2.36842C-0.0292969 2.25146 -0.0292969 2.1345 -0.0292969 2.01754C0.593813 1.29814 1.25788 0.615879 1.96289 -0.0292435ZM23.5254 1.19883C23.8775 1.18911 24.229 1.19886 24.5801 1.22807C23.9648 1.88109 23.3496 2.53411 22.7344 3.18713C22.6953 3.90838 22.6953 4.62963 22.7344 5.35087C23.3105 5.96491 23.8867 6.57894 24.4629 7.19298C24.5669 7.27713 24.6841 7.33561 24.8145 7.36842C25.4395 7.40742 26.0644 7.40742 26.6895 7.36842C26.7918 7.34087 26.8894 7.30187 26.9824 7.25146C27.5977 6.63742 28.2129 6.02339 28.8281 5.40935C28.8837 7.82351 27.7802 9.45117 25.5176 10.2924C24.5033 10.5787 23.4974 10.5494 22.5 10.2047C22.3894 10.222 22.2819 10.2512 22.1777 10.2924C18.2422 14.2203 14.3067 18.1481 10.3711 22.076C10.3121 22.195 10.2829 22.3216 10.2832 22.4561C10.9832 25.1516 10.1043 27.1399 7.64648 28.421C6.94887 28.7028 6.22617 28.8002 5.47852 28.7134C6.13459 28.0782 6.76934 27.4252 7.38281 26.7544C7.42189 26.0332 7.42189 25.3119 7.38281 24.5906C6.80842 23.9588 6.2127 23.3448 5.5957 22.7485C5.49172 22.6644 5.37454 22.6059 5.24414 22.5731C4.61914 22.5341 3.99414 22.5341 3.36914 22.5731C3.26681 22.6006 3.16916 22.6396 3.07617 22.6901C2.46094 23.3041 1.8457 23.9181 1.23047 24.5322C1.17396 22.1205 2.27747 20.4928 4.54102 19.6491C5.55471 19.3628 6.56057 19.392 7.55859 19.7368C7.66922 19.7195 7.77668 19.6903 7.88086 19.6491C11.8164 15.7212 15.7519 11.7934 19.6875 7.86549C19.7464 7.74655 19.7757 7.61988 19.7754 7.48538C19.0754 4.7899 19.9543 2.8016 22.4121 1.52046C22.7829 1.38438 23.154 1.27717 23.5254 1.19883ZM2.31445 1.31579C3.44564 1.99739 4.57845 2.67965 5.71289 3.36257C5.76162 3.84873 5.79092 4.33607 5.80078 4.82456C5.83366 4.9547 5.89225 5.07166 5.97656 5.17544C8.39842 7.59257 10.8203 10.0098 13.2422 12.4269C13.2813 12.4659 13.2813 12.5049 13.2422 12.5439C13.0176 12.768 12.7929 12.9922 12.5684 13.2164C12.5293 13.2554 12.4903 13.2554 12.4512 13.2164C10.0097 10.7018 7.5293 8.22614 5.00977 5.78947C4.4681 5.7789 3.931 5.74966 3.39844 5.70175C2.73628 4.56351 2.06245 3.4329 1.37695 2.30994C1.69072 1.97736 2.00322 1.64598 2.31445 1.31579ZM18.3105 15.8772C18.4924 15.9896 18.6681 16.1164 18.8379 16.2573C18.9817 16.3591 19.0696 16.4858 19.1016 16.6374C18.2804 17.4667 17.4503 18.2854 16.6113 19.0936C16.3974 18.8508 16.1728 18.6168 15.9375 18.3918C15.8984 18.3528 15.8984 18.3139 15.9375 18.2749C16.7404 17.4833 17.5314 16.6841 18.3105 15.8772ZM20.0098 17.4561C20.0931 17.4684 20.1712 17.4976 20.2441 17.5439C22.8242 19.9436 25.4219 22.3218 28.0371 24.6784C29.1602 25.9251 29.1212 27.1337 27.9199 28.3041C26.7571 28.9937 25.6926 28.867 24.7266 27.924C22.3458 25.2943 19.9434 22.6823 17.5195 20.0877C17.4804 20.0487 17.4804 20.0098 17.5195 19.9708C18.3615 19.1403 19.1915 18.302 20.0098 17.4561Z" fill="black"/>
<path opacity="0.891" fill-rule="evenodd" clip-rule="evenodd" d="M20.1855 9.03509C20.882 9.06269 21.1066 9.39403 20.8593 10.0292C20.4627 10.366 20.1111 10.327 19.8046 9.91228C19.6795 9.5 19.8065 9.2076 20.1855 9.03509Z" fill="black"/>
<path opacity="0.94" fill-rule="evenodd" clip-rule="evenodd" d="M18.6035 10.6725C19.2691 10.773 19.4547 11.1239 19.1602 11.7251C16.6895 14.1911 14.2188 16.6569 11.7481 19.1228C11.3416 19.3406 11.0193 19.2529 10.7813 18.8597C10.7203 18.6238 10.7594 18.4094 10.8985 18.2164C13.3692 15.7505 15.8399 13.2846 18.3106 10.8187C18.4169 10.7744 18.5145 10.7257 18.6035 10.6725Z" fill="black"/>
<path opacity="0.891" fill-rule="evenodd" clip-rule="evenodd" d="M9.52155 19.6784C10.1387 19.6608 10.3828 19.9532 10.254 20.5556C9.99967 20.9277 9.67741 20.996 9.28717 20.7602C9.05034 20.4911 9.02104 20.2084 9.19928 19.9123C9.30546 19.8259 9.41286 19.748 9.52155 19.6784Z" fill="black"/>
<path opacity="0.939" fill-rule="evenodd" clip-rule="evenodd" d="M20.7128 20.1462C20.9313 20.1506 21.1266 20.2189 21.2987 20.3509C23.0663 22.115 24.8339 23.8791 26.6015 25.6433C26.859 26.1803 26.7028 26.5117 26.1327 26.6374C25.9633 26.6515 25.8168 26.6027 25.6932 26.4912C23.9061 24.7076 22.119 22.924 20.3319 21.1403C20.1108 20.6789 20.2378 20.3475 20.7128 20.1462Z" fill="black"/>
</g>
<defs>
<clipPath id="clip0_383_12472">
<rect width="30" height="30" fill="white"/>
</clipPath>
</defs>
</svg>
