<svg width="30" height="30" viewBox="0 0 30 30" fill="none" xmlns="http://www.w3.org/2000/svg">
<g clip-path="url(#clip0_383_12442)">
<path opacity="0.945" fill-rule="evenodd" clip-rule="evenodd" d="M17.1387 -0.0292969C20.7324 -0.0292969 24.3262 -0.0292969 27.9199 -0.0292969C28.0801 0.0413065 28.2364 0.129197 28.3887 0.234375C28.8281 0.673828 29.2676 1.11328 29.707 1.55273C29.8122 1.70504 29.9001 1.86128 29.9707 2.02148C29.9707 2.31445 29.9707 2.60742 29.9707 2.90039C29.6106 3.62176 29.0637 4.15886 28.3301 4.51172C27.567 4.67371 26.9419 4.43933 26.4551 3.80859C26.416 3.76953 26.377 3.76953 26.3379 3.80859C25.8771 4.24982 25.4376 4.7088 25.0195 5.18555C24.9804 5.96678 24.9804 6.74807 25.0195 7.5293C25.4297 7.70508 25.7227 7.99805 25.8984 8.4082C25.9726 9.04852 26.0116 9.69305 26.0156 10.3418C26.7021 11.6365 27.2588 12.9841 27.6855 14.3848C28.0551 14.4335 28.4262 14.4628 28.7988 14.4727C29.3896 14.6242 29.7803 14.9855 29.9707 15.5566C29.9707 16.1621 29.9707 16.7676 29.9707 17.373C29.8855 17.5434 29.7976 17.7192 29.707 17.9004C29.449 18.1394 29.1755 18.3542 28.8867 18.5449C28.1865 21.8314 27.4638 25.1127 26.7188 28.3887C26.3597 29.227 25.7445 29.7544 24.873 29.9707C18.252 29.9707 11.6309 29.9707 5.00977 29.9707C4.17109 29.7283 3.57538 29.201 3.22266 28.3887C2.47761 25.1127 1.75496 21.8314 1.05469 18.5449C0.765855 18.3542 0.492418 18.1394 0.234375 17.9004C0.143793 17.7192 0.055902 17.5434 -0.0292969 17.373C-0.0292969 16.7676 -0.0292969 16.1621 -0.0292969 15.5566C0.206936 14.8615 0.695215 14.4905 1.43555 14.4434C1.42579 13.2909 1.43555 12.1385 1.46484 10.9863C1.62508 9.62637 2.25984 8.55217 3.36914 7.76367C3.41796 6.39691 3.44725 5.02972 3.45703 3.66211C3.72803 2.2779 4.56788 1.53571 5.97656 1.43555C7.49145 1.56371 8.33127 2.38402 8.49609 3.89648C8.54449 5.16052 8.53477 6.42029 8.4668 7.67578C8.74213 7.85273 8.99607 8.05781 9.22852 8.29102C9.42633 8.09309 9.64119 7.9173 9.87305 7.76367C9.92186 6.22107 9.95115 4.67811 9.96094 3.13477C10.0635 2.68734 10.3467 2.45296 10.8105 2.43164C11.1594 2.54463 11.5109 2.65205 11.8652 2.75391C12.0755 2.76603 12.2806 2.79533 12.4805 2.8418C13.05 2.76534 13.6066 2.62862 14.1504 2.43164C14.4587 2.45395 14.7028 2.59066 14.8828 2.8418C14.96 4.45782 14.999 6.07893 15 7.70508C16.2101 8.56242 16.8742 9.7343 16.9922 11.2207C17.0215 12.2947 17.0313 13.369 17.0215 14.4434C17.5882 14.4531 18.1546 14.4434 18.7207 14.4141C19.8395 13.3198 20.5719 12.0015 20.918 10.459C20.9231 9.77203 20.9621 9.08848 21.0352 8.4082C21.2109 7.99805 21.5039 7.70508 21.9141 7.5293C21.9531 6.7285 21.9531 5.92775 21.9141 5.12695C21.6211 4.73633 21.3281 4.34571 21.0352 3.95508C21.0156 4.7168 20.9961 5.47852 20.9766 6.24023C20.8952 6.58846 20.7292 6.89115 20.4785 7.14844C19.9151 7.53604 19.3682 7.94619 18.8379 8.37891C18.0621 8.78613 17.3688 8.67873 16.7578 8.05664C16.3147 7.37771 16.3342 6.71367 16.8164 6.06445C17.1875 5.77148 17.5586 5.47852 17.9297 5.18555C17.959 4.61948 17.9687 4.05307 17.959 3.48633C17.4928 3.56064 17.0729 3.46299 16.6992 3.19336C16.5902 3.05346 16.5121 2.8972 16.4648 2.72461C16.4258 2.06055 16.4258 1.39648 16.4648 0.732422C16.5596 0.354952 16.7842 0.101046 17.1387 -0.0292969ZM17.4902 1.02539C17.9785 1.02539 18.4668 1.02539 18.9551 1.02539C18.9551 1.49414 18.9551 1.96289 18.9551 2.43164C18.4668 2.43164 17.9785 2.43164 17.4902 2.43164C17.4902 1.96289 17.4902 1.49414 17.4902 1.02539ZM20.0098 1.02539C22.5684 1.01562 25.1271 1.02539 27.6855 1.05469C28.0859 1.45508 28.4863 1.85547 28.8867 2.25586C28.933 2.43949 28.9135 2.61527 28.8281 2.7832C28.5635 3.11694 28.2412 3.37084 27.8613 3.54492C27.4273 3.25772 27.0367 2.91592 26.6895 2.51953C26.5385 2.44627 26.3822 2.42674 26.2207 2.46094C25.5371 3.0664 24.8926 3.71094 24.2871 4.39453C23.7598 4.4336 23.2324 4.4336 22.7051 4.39453C22.2558 3.78906 21.8067 3.18359 21.3574 2.57812C21.2793 2.53906 21.2012 2.5 21.123 2.46094C20.7524 2.43167 20.3814 2.4219 20.0098 2.43164C20.0098 1.96289 20.0098 1.49414 20.0098 1.02539ZM5.77148 2.49023C6.97201 2.56281 7.53838 3.20734 7.4707 4.42383C6.47461 4.42383 5.47852 4.42383 4.48242 4.42383C4.40443 3.42455 4.83412 2.78002 5.77148 2.49023ZM19.0137 3.48633C19.3262 3.48633 19.6387 3.48633 19.9512 3.48633C19.961 4.34593 19.9512 5.2053 19.9219 6.06445C19.8804 6.15709 19.8316 6.24498 19.7754 6.32812C19.1929 6.78404 18.5875 7.20398 17.959 7.58789C17.4845 7.43051 17.3868 7.14732 17.666 6.73828C18.1027 6.43846 18.5225 6.11619 18.9258 5.77148C19.0103 5.01411 19.0396 4.25239 19.0137 3.48633ZM10.9863 3.60352C11.9538 3.9701 12.9304 3.98962 13.916 3.66211C13.9355 4.83463 13.916 6.0065 13.8574 7.17773C12.9207 6.86742 11.9832 6.86742 11.0449 7.17773C10.9863 5.98699 10.9668 4.79556 10.9863 3.60352ZM4.48242 5.47852C5.47852 5.47852 6.47461 5.47852 7.4707 5.47852C7.4707 6.04494 7.4707 6.61131 7.4707 7.17773C6.49418 6.86754 5.51759 6.86754 4.54102 7.17773C4.48252 6.61266 4.46298 6.04629 4.48242 5.47852ZM22.998 5.47852C23.3105 5.47852 23.6231 5.47852 23.9355 5.47852C23.9355 6.14256 23.9355 6.80666 23.9355 7.4707C23.6231 7.4707 23.3105 7.4707 22.998 7.4707C22.998 6.80666 22.998 6.14256 22.998 5.47852ZM5.53711 7.99805C6.75006 7.91057 7.76566 8.311 8.58398 9.19922C8.25469 9.7282 8.05934 10.3044 7.99805 10.9277C6.92367 10.9179 5.84943 10.9277 4.77539 10.957C4.05004 11.0769 3.61059 11.4968 3.45703 12.2168C3.42774 12.9587 3.41797 13.7009 3.42773 14.4434C3.11524 14.4434 2.80273 14.4434 2.49023 14.4434C2.48047 13.3494 2.49024 12.2557 2.51953 11.1621C2.8188 9.42738 3.82466 8.37269 5.53711 7.99805ZM12.041 7.99805C14.043 7.96014 15.3223 8.89764 15.8789 10.8105C15.9592 12.0199 15.9885 13.2308 15.9668 14.4434C15.6347 14.4434 15.3028 14.4434 14.9707 14.4434C14.9805 13.5252 14.9707 12.6072 14.9414 11.6895C14.6289 11.377 14.3164 11.377 14.0039 11.6895C13.9844 11.7676 13.9648 11.8457 13.9453 11.9238C13.916 12.7634 13.9062 13.6033 13.916 14.4434C12.6074 14.4434 11.2988 14.4434 9.99023 14.4434C10 13.6814 9.99023 12.9197 9.96094 12.1582C9.84322 11.6497 9.55025 11.2787 9.08203 11.0449C9.23971 9.72621 9.93311 8.7985 11.1621 8.26172C11.4596 8.16328 11.7526 8.07539 12.041 7.99805ZM22.2949 8.52539C23.096 8.51561 23.8967 8.52539 24.6973 8.55469C24.788 8.62582 24.8563 8.71371 24.9023 8.81836C24.9316 9.18896 24.9414 9.56004 24.9316 9.93164C23.9551 9.93164 22.9785 9.93164 22.002 9.93164C21.9922 9.56004 22.002 9.18896 22.0312 8.81836C22.0913 8.69022 22.1792 8.59254 22.2949 8.52539ZM21.8262 10.9863C22.9402 10.9668 24.0534 10.9863 25.166 11.0449C25.7262 12.12 26.1949 13.2333 26.5723 14.3848C24.4436 14.4531 22.3147 14.4629 20.1855 14.4141C21.0059 13.4079 21.5528 12.2653 21.8262 10.9863ZM4.89258 11.9824C6.12322 11.9726 7.35369 11.9824 8.58398 12.0117C8.73047 12.0801 8.83787 12.1875 8.90625 12.334C8.94533 15.1074 8.94533 17.8809 8.90625 20.6543C8.83436 20.7847 8.72689 20.8726 8.58398 20.918C7.334 20.9571 6.08396 20.9571 4.83398 20.918C4.72934 20.872 4.64145 20.8037 4.57031 20.7129C4.47353 17.9429 4.45399 15.1695 4.51172 12.3926C4.57138 12.1866 4.69833 12.0499 4.89258 11.9824ZM1.31836 15.498C2.02148 15.498 2.72461 15.498 3.42773 15.498C3.42773 16.1426 3.42773 16.7871 3.42773 17.4316C2.6797 17.4587 1.93751 17.4294 1.20117 17.3438C1.15235 17.2949 1.10351 17.2461 1.05469 17.1973C1.01562 16.7285 1.01562 16.2598 1.05469 15.791C1.11475 15.6629 1.20264 15.5652 1.31836 15.498ZM9.99023 15.498C16.2012 15.4883 22.4122 15.498 28.623 15.5273C28.75 15.5762 28.8379 15.664 28.8867 15.791C28.9258 16.2598 28.9258 16.7285 28.8867 17.1973C28.8156 17.288 28.7277 17.3563 28.623 17.4023C22.4122 17.4316 16.2012 17.4414 9.99023 17.4316C9.99023 16.7871 9.99023 16.1426 9.99023 15.498ZM2.13867 18.4863C2.56836 18.4863 2.99805 18.4863 3.42773 18.4863C3.41797 19.2288 3.42774 19.971 3.45703 20.7129C3.74687 21.723 4.42069 22.1528 5.47852 22.002C5.69811 23.6856 5.94223 25.3653 6.21094 27.041C6.64518 27.8779 7.319 28.1611 8.23242 27.8906C8.9274 27.5263 9.23016 26.9501 9.14062 26.1621C8.94129 24.7767 8.75578 23.39 8.58398 22.002C9.28559 21.896 9.74461 21.5054 9.96094 20.8301C9.99023 20.0491 10 19.2678 9.99023 18.4863C15.9277 18.4863 21.8653 18.4863 27.8027 18.4863C27.1236 21.7162 26.4107 24.9389 25.6641 28.1543C25.4476 28.5077 25.1449 28.7518 24.7559 28.8867C18.2324 28.9258 11.709 28.9258 5.18555 28.8867C4.66402 28.6972 4.32222 28.3358 4.16016 27.8027C3.47684 24.6985 2.80301 21.593 2.13867 18.4863ZM12.041 20.4785C12.4328 20.5482 12.6183 20.7826 12.5977 21.1816C12.6725 22.8915 12.7604 24.6004 12.8613 26.3086C12.8089 26.9158 12.5258 27.0623 12.0117 26.748C11.9442 26.5599 11.9051 26.3646 11.8945 26.1621C11.8178 24.4718 11.7299 22.7824 11.6309 21.0938C11.6218 20.7822 11.7585 20.5771 12.041 20.4785ZM17.7246 20.4785C18.1089 20.5015 18.3043 20.7066 18.3105 21.0938C18.2124 22.9401 18.105 24.7858 17.9883 26.6309C17.795 26.9399 17.5412 26.9985 17.2266 26.8066C17.1189 26.658 17.0701 26.4919 17.0801 26.3086C17.171 24.4616 17.2784 22.6159 17.4023 20.7715C17.4847 20.64 17.5921 20.5424 17.7246 20.4785ZM22.998 20.4785C23.3242 20.5215 23.5 20.707 23.5254 21.0352C23.2856 22.9485 23.0023 24.8528 22.6758 26.748C22.2353 27.0539 21.9521 26.9465 21.8262 26.4258C22.0922 24.5609 22.3559 22.6957 22.6172 20.8301C22.7013 20.6577 22.8283 20.5405 22.998 20.4785ZM6.5332 22.002C6.86092 21.984 7.18318 22.0035 7.5 22.0605C7.70238 23.526 7.90746 24.9909 8.11523 26.4551C8.05846 26.8349 7.84365 26.9814 7.4707 26.8945C7.34373 26.8457 7.25584 26.7578 7.20703 26.6309C6.97951 25.0871 6.75492 23.5441 6.5332 22.002Z" fill="#2C2B46"/>
<path opacity="0.871" fill-rule="evenodd" clip-rule="evenodd" d="M12.2754 4.95117C12.8412 4.90182 13.0658 5.15573 12.9492 5.71289C12.662 6.07863 12.3494 6.09814 12.0117 5.77148C11.8714 5.42094 11.9593 5.1475 12.2754 4.95117Z" fill="#2C2B46"/>
<path opacity="0.939" fill-rule="evenodd" clip-rule="evenodd" d="M11.9238 19.4238C12.9596 19.4539 13.5357 19.9812 13.6523 21.0059C13.7565 22.9198 13.8346 24.8338 13.8867 26.748C13.6204 27.7155 12.9856 28.1159 11.9824 27.9492C11.4258 27.7832 11.0644 27.4219 10.8984 26.8652C10.7562 24.8157 10.6586 22.765 10.6055 20.7129C10.7694 19.9922 11.2089 19.5625 11.9238 19.4238ZM12.041 20.4785C11.7585 20.5771 11.6218 20.7822 11.6309 21.0937C11.7299 22.7824 11.8178 24.4718 11.8945 26.1621C11.9051 26.3646 11.9442 26.5599 12.0117 26.748C12.5258 27.0623 12.8089 26.9158 12.8613 26.3086C12.7604 24.6004 12.6725 22.8915 12.5977 21.1816C12.6183 20.7826 12.4328 20.5482 12.041 20.4785Z" fill="#2C2B46"/>
<path opacity="0.939" fill-rule="evenodd" clip-rule="evenodd" d="M17.6659 19.4238C18.7318 19.4545 19.2982 20.0014 19.3652 21.0645C19.2714 22.9989 19.164 24.9325 19.0429 26.8652C18.6606 27.8229 17.9673 28.1647 16.9628 27.8906C16.3291 27.5711 16.0167 27.0535 16.0253 26.3379C16.117 24.4226 16.2244 22.5085 16.3476 20.5957C16.561 19.9424 17.0004 19.5518 17.6659 19.4238ZM17.7245 20.4785C17.5921 20.5424 17.4847 20.64 17.4023 20.7715C17.2783 22.6159 17.1709 24.4616 17.08 26.3086C17.07 26.4919 17.1188 26.658 17.2265 26.8066C17.5411 26.9985 17.795 26.9399 17.9882 26.6309C18.1049 24.7858 18.2123 22.9401 18.3105 21.0938C18.3042 20.7066 18.1089 20.5015 17.7245 20.4785Z" fill="#2C2B46"/>
<path opacity="0.938" fill-rule="evenodd" clip-rule="evenodd" d="M22.8809 19.4238C23.9068 19.444 24.4731 19.9616 24.5801 20.9766C24.3383 22.9423 24.0746 24.9052 23.7891 26.8652C23.4507 27.801 22.7965 28.1623 21.8262 27.9492C21.1502 27.6816 20.7986 27.1835 20.7715 26.4551C21.0247 24.4388 21.3079 22.4271 21.6211 20.4199C21.8659 19.8546 22.2858 19.5226 22.8809 19.4238ZM22.998 20.4785C22.8283 20.5405 22.7013 20.6577 22.6172 20.8301C22.3559 22.6957 22.0922 24.5609 21.8262 26.4258C21.9521 26.9465 22.2353 27.0539 22.6758 26.748C23.0023 24.8528 23.2856 22.9485 23.5254 21.0352C23.5 20.707 23.3242 20.5215 22.998 20.4785Z" fill="#2C2B46"/>
</g>
<defs>
<clipPath id="clip0_383_12442">
<rect width="30" height="30" fill="white"/>
</clipPath>
</defs>
</svg>
