<svg width="30" height="30" viewBox="0 0 30 30" fill="none" xmlns="http://www.w3.org/2000/svg">
<g clip-path="url(#clip0_383_12456)">
<path opacity="0.944" fill-rule="evenodd" clip-rule="evenodd" d="M29.9706 13.7402C29.9706 14.5801 29.9706 15.4199 29.9706 16.2598C29.7156 19.105 28.7488 21.6831 27.0702 23.9941C26.5453 24.2933 26.1841 24.1566 25.9862 23.584C26.2069 23.0603 26.49 22.5721 26.8359 22.1191C29.3823 17.5416 29.4409 12.9322 27.0116 8.29102C24.6368 4.33855 21.1505 2.04362 16.5527 1.40625C13.0179 1.03081 9.79521 1.85112 6.88468 3.86719C6.16527 3.96159 5.9016 3.65885 6.09367 2.95899C8.73982 1.02884 11.7086 0.0718077 14.9999 0.0878916C20.0314 0.191478 24.0744 2.22273 27.1288 6.18164C28.7416 8.45162 29.6888 10.9712 29.9706 13.7402Z" fill="#2C2B46"/>
<path opacity="0.962" fill-rule="evenodd" clip-rule="evenodd" d="M11.3966 3.07617C12.4452 2.98947 13.1385 3.43868 13.4767 4.42383C13.506 5.77134 13.5157 7.11902 13.506 8.4668C14.4825 8.4668 15.4591 8.4668 16.4356 8.4668C16.4259 7.11902 16.4356 5.77134 16.4649 4.42383C16.8685 3.33811 17.64 2.91819 18.7794 3.16406C19.3665 3.3995 19.7474 3.81943 19.922 4.42383C19.9415 5.77148 19.9611 7.11914 19.9806 8.4668C21.5017 8.89623 22.1072 9.89232 21.797 11.4551C21.5003 12.1618 20.9925 12.6502 20.2735 12.9199C20.254 14.0918 20.2344 15.2637 20.2149 16.4355C19.8394 18.4028 18.7359 19.7895 16.9044 20.5957C16.8699 21.1067 16.8211 21.6145 16.7579 22.1191C16.5101 22.5702 16.1293 22.8046 15.6153 22.8223C15.6055 24.3653 15.6153 25.9083 15.6446 27.4512C15.9814 28.3733 16.6357 28.7542 17.6075 28.5938C19.6368 28.1784 21.4922 27.3776 23.1739 26.1914C23.7892 26.1035 24.0528 26.3672 23.9649 26.9824C23.8992 27.1069 23.8113 27.2143 23.7013 27.3047C21.738 28.701 19.5603 29.5702 17.1681 29.9121C15.7155 29.7872 14.7976 29.0255 14.4142 27.627C14.3849 26.0255 14.3751 24.4239 14.3849 22.8223C13.8472 22.822 13.4468 22.5877 13.1837 22.1191C13.1205 21.6145 13.0717 21.1067 13.0372 20.5957C11.2057 19.7895 10.1022 18.4028 9.72666 16.4355C9.70714 15.2637 9.68757 14.0918 9.66806 12.9199C8.44638 12.4298 7.91904 11.5314 8.08603 10.2246C8.22513 9.59783 8.56691 9.11936 9.11142 8.78906C9.37896 8.63484 9.66214 8.52744 9.96103 8.4668C9.98054 7.11914 10.0001 5.77148 10.0196 4.42383C10.24 3.72485 10.699 3.27564 11.3966 3.07617ZM11.5724 4.30664C11.9983 4.27351 12.2424 4.46882 12.3048 4.89258C12.3341 6.08385 12.3439 7.27524 12.3341 8.4668C11.9434 8.4668 11.5528 8.4668 11.1622 8.4668C11.1524 7.27524 11.1622 6.08385 11.1915 4.89258C11.217 4.62567 11.344 4.43036 11.5724 4.30664ZM18.0177 4.30664C18.4436 4.27351 18.6877 4.46882 18.7501 4.89258C18.7794 6.08385 18.7892 7.27524 18.7794 8.4668C18.3887 8.4668 17.9982 8.4668 17.6075 8.4668C17.5977 7.27524 17.6075 6.08385 17.6368 4.89258C17.6623 4.62567 17.7893 4.43036 18.0177 4.30664ZM10.0489 9.69727C13.3302 9.68748 16.6115 9.69727 19.8927 9.72656C20.5094 9.95379 20.7535 10.3932 20.6251 11.0449C20.4674 11.3982 20.2037 11.6228 19.8341 11.7188C16.5919 11.7578 13.3497 11.7578 10.1075 11.7188C9.33068 11.4441 9.10609 10.9266 9.43369 10.166C9.59957 9.95045 9.80464 9.79418 10.0489 9.69727ZM10.8692 12.9785C13.6036 12.9785 16.338 12.9785 19.0724 12.9785C19.092 14.0739 19.0627 15.1676 18.9845 16.2598C18.5053 18.4088 17.1675 19.5611 14.9708 19.7168C12.7741 19.5611 11.4362 18.4088 10.9571 16.2598C10.8788 15.1676 10.8495 14.0739 10.8692 12.9785ZM14.2677 20.8887C14.7364 20.9668 15.2052 20.9668 15.6739 20.8887C15.6836 21.1044 15.6739 21.3192 15.6446 21.5332C15.2099 21.6004 14.7704 21.6101 14.3263 21.5625C14.27 21.3439 14.2505 21.1194 14.2677 20.8887Z" fill="#2C2B46"/>
<path opacity="0.888" fill-rule="evenodd" clip-rule="evenodd" d="M4.59961 4.30664C5.1633 4.34045 5.38792 4.63342 5.27344 5.18555C5.08143 5.51419 4.79822 5.62161 4.42383 5.50781C4.06388 5.2481 3.99552 4.92583 4.21875 4.54102C4.33669 4.43858 4.46364 4.36046 4.59961 4.30664Z" fill="#2C2B46"/>
<path opacity="0.946" fill-rule="evenodd" clip-rule="evenodd" d="M-0.0292969 16.377C-0.0292969 15.5176 -0.0292969 14.6582 -0.0292969 13.7988C0.228877 11.0025 1.18591 8.47324 2.8418 6.21094C3.50409 5.96977 3.82635 6.19436 3.80859 6.88477C0.923133 11.1939 0.434854 15.7642 2.34375 20.5957C2.71791 21.442 3.16713 22.2428 3.69141 22.998C5.17032 22.4429 6.30316 22.8531 7.08984 24.2285C7.50791 25.454 7.22467 26.4794 6.24023 27.3047C4.8905 28.0597 3.70886 27.8546 2.69531 26.6895C2.10025 25.7129 2.11001 24.7461 2.72461 23.7891C1.16326 21.5561 0.245285 19.0853 -0.0292969 16.377ZM4.42383 23.9941C5.49598 23.9045 6.03311 24.3928 6.03516 25.459C5.68617 26.439 5.03187 26.7222 4.07227 26.3086C3.37773 25.6972 3.31914 25.0331 3.89648 24.3164C4.05839 24.1773 4.23417 24.0698 4.42383 23.9941Z" fill="#2C2B46"/>
<path opacity="0.942" fill-rule="evenodd" clip-rule="evenodd" d="M15.6153 13.1543C16.286 13.3016 16.4521 13.6727 16.1133 14.2676C15.8971 14.513 15.692 14.7669 15.4981 15.0293C15.7582 15.0621 16.0023 15.1402 16.2305 15.2637C16.3716 15.4771 16.4107 15.7114 16.3477 15.9668C15.9329 16.738 15.5032 17.4997 15.0586 18.252C14.7071 18.5723 14.3751 18.5528 14.0625 18.1934C13.9505 17.9607 13.9505 17.7263 14.0625 17.4902C14.2871 17.1094 14.5118 16.7285 14.7364 16.3477C14.4173 16.3417 14.1048 16.3027 13.7989 16.2305C13.5786 16.0112 13.5102 15.7475 13.5938 15.4395C14.1673 14.69 14.763 13.9576 15.3809 13.2422C15.4722 13.2299 15.5503 13.2006 15.6153 13.1543Z" fill="#2C2B46"/>
<path opacity="0.888" fill-rule="evenodd" clip-rule="evenodd" d="M24.9317 24.6387C25.5754 24.589 25.8391 24.882 25.7227 25.5176C25.415 25.9263 25.0634 25.9654 24.668 25.6348C24.4708 25.2323 24.5587 24.9004 24.9317 24.6387Z" fill="#2C2B46"/>
</g>
<defs>
<clipPath id="clip0_383_12456">
<rect width="30" height="30" fill="white"/>
</clipPath>
</defs>
</svg>
